<svg xmlns="http://www.w3.org/2000/svg" viewBox="0 0 274.31 237.1"><defs><style>.cls-1{fill:#004079;}.cls-2{fill:#e84c15;}.cls-3{fill:#f29000;}.cls-4{fill:#009de2;}</style></defs><title>alefpa-picto</title><g id="Calque_2" data-name="Calque 2"><g id="Calque_1-2" data-name="Calque 1"><path class="cls-1" d="M123.24,0,28.44,237.1H53.25a10.64,10.64,0,0,0,6.94-2.16,13.14,13.14,0,0,0,4-5.45l22.17-57.25,8.93-23.17L132.5,52.61a179.68,179.68,0,0,0,7.11-22.33c1.22,4.53,2.39,8.68,3.56,12.5s2.29,7.14,3.39,10l37.23,96.29,8.93,23.17,22.17,57.25a12.89,12.89,0,0,0,4,5.3,10.64,10.64,0,0,0,6.95,2.31h24.82L155.83,0Z"/><polygon class="cls-2" points="112.94 103.42 121.2 122.33 12.54 168.9 4.29 150.01 112.94 103.42"/><path class="cls-2" d="M114.37,103.53c-.55-.87-.33.74-.51-.5.31,0,.58.11.51.5"/><path class="cls-2" d="M109.49,104c-2.31,2.94-7,3-9.85,5.44-.36.24-.29-.94-1.07-.35-2.65,2.65-8,4.05-12.35,4.74l.13-.36c-.82.13-1.37,1.36-2.2,1.59-.08-.17.15-.35-.13-.51,0,.6-1.32.85-1.49,1.37-.4-.07-.54-.48-1-.54l-.2.78c-.66,1.92-3.08,1.21-4.49,2.65,0-.17.15-.35,0-.42-2.38,2-5.89,3.33-8.82,5a.85.85,0,0,0-.29-.83c.11.68-.77,1.24-1.54,1.71-.64-.47-1.16,1.18-2.28,1.24l0-.17c-.43,1-1.22.07-1.46,1.11l-.66-.3c.07,1-1.23,0-1.62.69l.1.17c-.46.45-.94.13-1.39.5l-.09-.08c-1.11.75-2,.56-1.69,1.23-.66-.37,1.06-.75.05-1.28-3.66,2.42-7.81,4-11.8,5.76-.57-.08-.9,0-1.11-.26-.34.31-1.45.77-1.66,1.28.13-.07-.41-.24-.63-.19-.84,0-.47,1.1-1.4,1.13.24-.32.25-.59,0-.8-.45.83-1.4,1.14-2.13,1.65.08-.17.24-.32.12-.53-.62,1-1.66.56-2.27,1.28l.12-.52c-1.45,0,0,1-1.21,1.17.2-.24,0-.36,0-.54-.69,1.16-2.41,1.61-3.31,2.29a.23.23,0,0,0,0-.18,19.41,19.41,0,0,0-3.35,1.65c-.51,0-.27-1-1.36-.39.38.78-1.82,1.17-.75,1.78-1,.29-2.73.66-3.27,1.21.31-.49-.9-.77-.11-1.19l-.83-.22c0-.37.69-.16.31-.49a9.12,9.12,0,0,1-1.88,1.06c-.55.82-.85,2-2,2.66.44-.56-.71-.74-.37-1l-1.06,2.26c-.39.22-.36-.59-.86-.13.12.2-.08.44-.19.69-.2,0-1.62.93-2.13.21-.31-.23.6-.45,0-.54-.75.33-.67.62-1.42,1l-.06-.1c-.55.1-1.33,1-.6,1.17.36-.13-.33-.42.28-.41-.16.61-1,1.11-1.73,1.44.2-.24.08-.43.09-.7a11.07,11.07,0,0,1-2.77,2.46c.14.38.13-.86.38-.74-1.19.07-2,1.07-3,1.55l1.13-2.84a2,2,0,0,1,.24,1.22c-.15-.17.49-.34.39-.28.26.72-.3.92.1,1.29-.3.18.35.53.65,1,.33.14-.1.19-.31-.2a10.65,10.65,0,0,1,2.38,4.64c.2-.12,1.17.59,1.3.95l-.55.08c-.16.44.55,1.14.15,1.39.92.48-1.75-2.63-.85-1.83-.3.44,1.39,1.05.63,1.13.32.69,1.17,1.12,1,2,0-.23-.93-.27-.65.28.52,1,.36.18.87.91l.42.41c.49-.18.32.91.69.31-.34.29.87,1.33,0,1.58l-.69.13c.23.41,1,.41,1.39.63,0,.08-.11.25-.22.27,1-.35.37,1.06,1.33,1.24a6.21,6.21,0,0,0,.44,1.57l-3.54-1.4a1.77,1.77,0,0,1,1.4-.11A3.45,3.45,0,0,1,14.8,165c-.12.16-.32.28-.28.5.62.07.63-.24,1-.59,0,.19,1.23.14,1.93.24.56-.58.11-1,0-1.34,1,.68,1.68-1.44,2.84-.92-.18.24-.8.9-.13.89,1,.68,1-1.24,2.17-1.22l-.59-.68c.66.29,1.3-1.1,1.54-.25.22-.43,1.31-.25.87-1,1.94-.06,3.88-2.13,5.49-1.19.18-.23.84-.36.54-.7-.58-.26-.42.54-.7.32a.39.39,0,0,0,.14-.46c.59,0,1-.17.81.68,1.35,0,.63-1.81,2.22-2.14.07.34.23.41.64.18l.58-.89c1-.28.85.49,1.1,1,.47-.31,1.1-.55,1.16-1l.9.41c-.66-.29.28-.5.46-.74l-.18.23c.19.19.72-.2,1-.4-.21-.3-.87-.18-1.24-.14.16-.35.58-.47.81-.89.11.58,1,0,1.41-.1s.32-.7.46-.74c.13.27.77-.28.58.26-.12.16-.47-.11-.63.24.39.07.56.56,1-.06.36-.46-.57-1,.48-1-.18.23-.13.46-.24.73l1-.09-.17-.5c.17.07.1.15.18.19,0-.61,1.22-.71,1.17-1.36.4-.23,1-.05,1.47-.17l-.06.07a1.62,1.62,0,0,0,1.48-.9l0,.11a2.13,2.13,0,0,0,1.12-.86c.84.07,1,1.71,1.51.78.69-.31.71-1.35.3-1.54,1.39-.21,2.48-1.61,4-1.36.1-.27-.07-.34.25-.62,1.92-.6,3.64-2.23,5.5-1.91-.44.43.17.5.3.76.26-.62.72.22.56-.59-.23-.41-.28-.64-.87-.6a6.32,6.32,0,0,1,3.45-1.28c-.39-.07-.21-.3,0-.54.22.73,1.07.49,1.58,0l-.1-.46.58.26c.18-.24-.12-1,.66-.85a1,1,0,0,0,.37.37c.49-.62,1.13-1.59,2-1.52L68,142c.27-.19.6-.78,0-.73,1.33-.13,2.11-.41,2.71,0,1.46-2.16,4.37-3.47,6.76-4.39l.06.35c.76,0,.09-.69.63-.66-.07.39.76.45.42,1,1-.06.93-1,1.45-1.44-.09-.45-.36.47-.47-.11,0-.19,1.39-.21,1.26-.9.33.15.35.69.34,1l.42-.54c1,.45-1,2,.12,2.57l.47-.31c.77.45-1,1.31.34,1,.42-.55.5-1.66-.11-1.73,1.08-.67-.11-1.72,1.15-2.2.5.22-1,.51-.5.93.8.26,1-.78,1.64-.83-.68,0-.46-.83-.14-1.1.76,0-.16.77.77.45,0-.42.7-1-.12-1,0-1,1-.17,1.24-1,.54.46-.35,1.73.76,1.6-.39-.49.88-1.27,0-1.87.45,0,.68.41.55.87.7.11.9-1.59,1.55-.56l-.06-.65c.25.11.56.15,1,.33.49-.2,1.23-1.44,1.55-.56.12-.15,1.24-.59.56-1-.84-.07-.6.77-1.33.13.77.45,1-.51,1.26-.9l.21.31c.18-.23.76-.39.75-.81a.32.32,0,0,0,.31.45l0-.61c.85-.66.61.79,1.48.24l-.54.7c.12-.15.64.19,1-.16,0-.54.06-1.23.06-1.65.44-.43.46.42.77-.28l-.44.85c0,.2.78.57,1.48.25.38-.35.79-1.32,0-1.27.35-.16,1-.09.83.37.73-.5-.32-.45.25-1,.41.19,1.48.25,2.2.47l-.39,1.08.48-.19c-.36.88.52.33.44,1.14.37,0,.67-.43.92-.74-1.4-.63.46-1.89-.23-2.72,1.2-.82,1.81,2,2.54-.11-.33-.15,0-1.15-.7-.52.86-.25.14-1.19,1.27-1.21-.54.7,1.18.64.39,1.65-.07-.34-.68,0-.8.16.49.22.34,1,1.18.63.47-.31,1.16-.63.84-1.08s-.75.39-.66-.3c.93-.62,1.46.13,1.46-1-.61.35-1-.14-1.16-.52l.65-.55v.42c1.31-.25.07-.81,1.27-1.21l.85.48c0,.74-1.8.45-1.16,1.36.77-.28.8-.9,1.62-.94-.12.15-.33.27-.44.43.28-.08,1.12,1.13,1.86-.11.42-.54,0-.42-.15-.8,1.16-.63,1.36-1.17,2.11-1.56.15.8,1.41-.52.87.6a2.4,2.4,0,0,0-2.43,1.42c.81.68-1,.28-.88,1.27,1-.39,1.3.48,1.69,1,.28-.08.44-.43.57-.58-.11-.57-.46-.42-.71-1a3.89,3.89,0,0,0,2.43-1.83.49.49,0,0,1,.18.92,17.31,17.31,0,0,1,3.91-1.59c-1.16-.52,1.27-.79.43-1.27-.74.09-1.56-.28-1.37-.83.43-.12.15.38.4.49.32-.69,1.13.41,1.33-.55-1.05.78.22,1.15.29,1.91.68-.74.17.5,1,.14l.13-.14-.6,1.52a12.82,12.82,0,0,1-1.9-2.32c.13-1.45-1.29-3-1.77-4,.1-.7,1-.66.9-1.31-.32-.69-.59.88-.7-.31l.19,0c-.31-.24-.31-2.12-1.54-2l1,0c0-.23-.28-.32-.43-.44.27-.13.41-.46.72-.22.29-.89-.68-1.3-1-2l-.29.66c-.9-1-.76-2-1.44-3.1l.49-.17-.58-.56c.54,0,.56-.79,0-1l1.94,1.27c-.07.62-.81-.29-1.15.23s.3,1.45.83,1.42c-.13-.43-.24-.4-.55-.64.6-.42.85.21,1.43.32-.12-.2-.05-.59-.28-.55a2.56,2.56,0,0,1,1.06,1.37c-.47-.36-.3.44-.57.34.61-.2,1.08.39,1.29,1.32-.41.91,1.14,1.43,1.39,2.51a3.78,3.78,0,0,1-2-1c0,.76.32.69.3,1.45a2.83,2.83,0,0,1,2,.73l-.42.24c.55.64,1.2.36,1.49,1.36.49,1.71,1.22,3.38,1.7,4.64l-.41.24a1.35,1.35,0,0,1,.7.42l.61.65-1.36,1.26c-.67.62-1.9.82-2.48,1.45-1.76.26-3.25,1.89-4.38,1.48a47.69,47.69,0,0,1-7.89,4l.21-.84c-.32.69-.49-.22-1,.09.8.26-.42,1-.61,1.5-1.5.06-2.91,1.31-3.86,2.24l-.23-.42c-.8,1.31-2.48,1.18-4,1.66-.24-.11-.68-.41-1.08-.18-.47,1-.9,1.17-1.85,2.1a12.6,12.6,0,0,1-3.23.85c-2.71,2.34-6.18,3.07-9.18,5.07l-.46-.41c-2.69,2.45-7,3.12-9.46,4.84l-.12-1c-1,.1-1.83,1.06-1.34,1.59-1,.09-1.93,1.33-2.78.84-.94.21-.89.86-1.56,1.29a11.92,11.92,0,0,0-4.05,1.63l.43-.12c.1-.27,0-.65-.48-.53-.5.51-2.35.73-1.29,1.51-2,.15-3.86,2.24-5.91,2.15.27.22-.14.46-.24.73-1.53.67-3.39.77-4.4,1.79-.3,0,.18-.65-.46-.42-.32.27.15.38-.23.73-2.25,1.6-5.26,1.6-7.46,2.71-3.77,2.27-8.08,3.79-11.88,5.53l0-.23c-.94,1.36-3.37.47-3.88,2.12-.39-.07-1.2.4-1.15-.1-.78,1-3.1.69-4.27,2.05.14,0,.2-.11.32-.27-1.7.18-2.74,1.38-4.5,1.64.12-.16.38-.35.34-.58-.78-.14-1.07,1.51-1.84.64-.35.16,0,.62.17.5-.63.19-1.26.42-1.89.67l-3.09,1.25-1.21-3c-1.2-2.93-3-5.75-4.48-8.62-.52-2.83,1.64-.9,0-2.6.12-.25-.44,0-.24-.07-.63-.66.6-1.72-.17-2-.52.5-.51-.21-.89-.06-.28-1.75.14-2.31-.87-3.34l.37-.05a7,7,0,0,1-1.82-2.17L0,149.13l3.06-2a4,4,0,0,0,1.56-1.57c8-3.65,15.42-7.54,23.2-11,7.84-3.12,15.22-6.86,23.34-9.66,2.21.07,2.34,0,4.22-1.23,0,.17-.13.26.06.34-.2-.75,1.4-.68,1.3-1.44,3-1.12,5.56-2.46,8.56-3.75-.44.28-.43,1,.11.67l.39-.7.18.16c.34-.27.61-.8.11-.86,7.26-3.84,15.27-5.59,22.56-8.92a31.44,31.44,0,0,0,6.09-2.75c6-1.47,11.44-2.89,16.88-6a4.51,4.51,0,0,1-2.15,3.58"/><path class="cls-2" d="M114.93,104.62c-.27.35-.17,1.09-.87.78.3-.21.52-.71.87-.78"/><path class="cls-2" d="M119.89,120c0,.12-.31,0-.39-.07.2-.12.28-.49.51-.4l-1.57,4v0h0l1.56-3.94c-.19.12-.09.27-.13.46"/><path class="cls-2" d="M115.33,121.75c-.07-.34.78-1,1.33-1.28Z"/><path class="cls-2" d="M110.61,122.24c-.47-.11-.44-.3.05-.5.11.15,0,.3-.05.5"/><path class="cls-2" d="M110.62,123.09a.92.92,0,0,1-.84-.06c.13.27.73-.51.84.06"/><path class="cls-2" d="M101.18,126.05c-.21.12-.57.58-.92.32.33.15.89-.85.92-.32"/><path class="cls-2" d="M97.17,128.33c-.14,0-.23,0-.35.16-.31,0-.15-.38.05-.5Z"/><polygon class="cls-2" points="21.16 162.41 21.54 162.05 21.61 162.39 21.16 162.41"/><path class="cls-2" d="M10.27,150.24c.37-.39.44.16.54.17-.4.21,0-.45-.54-.17"/><polygon class="cls-2" points="27.69 140.91 27.55 140.98 27.32 140.31 27.69 140.91"/><polygon class="cls-3" points="141.73 186.85 149.85 205.8 270.88 154.54 262.76 135.57 141.73 186.85"/><path class="cls-3" d="M143.18,187c-.58-1-.31.79-.53-.57.31,0,.59.15.53.57"/><path class="cls-3" d="M145.49,186.21c2.61-3,7.67-3.23,10.85-5.82.4-.25.27.95,1.14.33,3-2.77,8.83-4.35,13.53-5.18l-.15.37c.89-.16,1.53-1.43,2.44-1.68.08.17-.18.36.12.51,0-.61,1.46-.9,1.67-1.44.42.05.56.47,1.1.51l.25-.79c.79-2,3.38-1.32,5-2.83,0,.17-.17.36,0,.43,2.65-2.12,6.49-3.55,9.72-5.29,0,.26,0,.69.28.84-.09-.68.88-1.28,1.73-1.78.67.46,1.3-1.23,2.51-1.33l0,.18c.5-1,1.32-.11,1.62-1.17l.71.28c0-1,1.33,0,1.78-.75l-.1-.17c.52-.47,1-.16,1.53-.55l.1.08c1.23-.79,2.2-.63,1.88-1.3.7.36-1.18.8-.1,1.3,4.05-2.56,8.6-4.32,13-6.19.62.07,1,0,1.19.24.38-.33,1.6-.83,1.84-1.35-.14.08.43.24.68.17.91-.08.55-1.13,1.56-1.19-.27.33-.3.6-.07.81.52-.86,1.55-1.19,2.36-1.74-.09.17-.27.33-.15.54.71-1,1.82-.62,2.5-1.36l-.15.53c1.57-.09,0-1,1.35-1.22-.23.25-.06.36,0,.55.79-1.19,2.67-1.71,3.66-2.42a.22.22,0,0,0,0,.19,23.35,23.35,0,0,0,3.68-1.77c.55,0,.26,1,1.46.36-.39-.78,2-1.24.88-1.83,1.14-.33,3-.75,3.58-1.33-.36.51.94.76.07,1.2l.89.2c0,.37-.75.18-.35.51A10.92,10.92,0,0,1,243,144.7c.63-.85,1-2.09,2.31-2.76-.5.58.73.73.36,1.05l1.23-2.33c.43-.23.36.59.92.1-.12-.2.1-.45.23-.71.21,0,1.78-1,2.31-.28.33.22-.66.47,0,.55.83-.36.75-.65,1.57-1l.06.1c.6-.11,1.47-1,.69-1.2-.39.14.35.41-.32.42.19-.62,1.1-1.16,1.93-1.52-.23.24-.11.44-.13.71a13,13,0,0,1,3.08-2.57c-.14-.39-.18.88-.44.76,1.82-.15,3-2.13,4.63-1.93-.19.16-.34-.48-.28-.39a1.21,1.21,0,0,1,.79,0l2.8.75-.09.35c-.06.22-.12.38.11.6-.3.19.37.58.69,1.06.34.17-.1.2-.32-.23a12.73,12.73,0,0,1,2.54,5.12c.2-.12,1.21.69,1.35,1.08l-.56.06c-.15.47.59,1.26.19,1.5.95.56-1.85-2.92-.92-2-.29.46,1.44,1.2.67,1.25.35.76,1.22,1.26,1.07,2.19,0-.25-1-.33-.65.27.55,1.05.37.21.91,1l.44.47c.49-.17.35,1,.71.37-.34.3.92,1.47.08,1.7l-.69.12c.25.45,1,.49,1.43.74,0,.09-.1.27-.21.28,1-.34.4,1.16,1.38,1.4a7.62,7.62,0,0,0,.49,1.74l.95,2.73-2.38.81a2,2,0,0,1-1.5.14,4.07,4.07,0,0,1-2.13,1.41c.13-.17.36-.29.32-.52-.66-.05-.69.26-1.12.62.05-.19-1.33-.1-2.07-.19-.63.61-.15,1-.1,1.36-1.09-.66-1.87,1.51-3.1,1,.21-.24.9-.93.17-.91-1.09-.66-1.1,1.28-2.4,1.3l.61.67c-.7-.28-1.44,1.15-1.67.3-.25.44-1.42.29-1,1-2.1.12-4.27,2.27-6,1.37-.21.24-.92.39-.62.72.62.24.48-.56.76-.34a.4.4,0,0,0-.17.47c-.64.07-1.11.2-.85-.67-1.46.06-.75,1.86-2.49,2.23-.06-.35-.23-.41-.68-.16l-.66.92c-1.09.31-.9-.47-1.15-1-.52.33-1.21.59-1.29,1.1l-1-.39c.7.28-.32.52-.53.76l.21-.24c-.2-.19-.78.23-1.08.43.22.3.93.16,1.33.1-.18.36-.65.49-.91.93-.1-.58-1.06,0-1.53.14s-.37.72-.53.76c-.13-.27-.85.3-.61-.25.14-.16.51.1.69-.27-.42-.06-.58-.55-1.13.09-.41.48.58,1-.55,1.07.2-.24.16-.47.28-.75l-1,.12.16.5c-.18-.07-.11-.15-.19-.19-.06.62-1.35.75-1.32,1.41-.45.25-1.13.08-1.6.22l.07-.08a1.92,1.92,0,0,0-1.63,1l0-.12a2.51,2.51,0,0,0-1.24.9c-.91,0-1-1.71-1.6-.75-.76.34-.82,1.39-.39,1.57-1.51.26-2.74,1.7-4.33,1.49-.12.28.06.35-.3.63-2.1.66-4,2.37-6,2.11.5-.45-.17-.5-.29-.77-.3.63-.77-.2-.63.61.23.41.27.65.92.58a7.55,7.55,0,0,1-3.77,1.4c.42.06.22.3,0,.54-.21-.73-1.14-.46-1.71.07l.09.46-.62-.25c-.2.24.09,1-.75.88a.92.92,0,0,0-.39-.37c-.55.64-1.28,1.64-2.18,1.6l-.88-.36c-.29.2-.68.81,0,.74-1.44.17-2.29.48-2.93.12-1.66,2.24-4.86,3.65-7.47,4.65l-.06-.35c-.82,0-.13.71-.7.69.1-.4-.81-.43-.42-1-1.13.09-1,1.09-1.63,1.51.08.46.41-.49.5.1,0,.19-1.51.25-1.39.95-.35-.14-.36-.69-.33-1l-.48.56c-1.05-.42,1.13-2,0-2.6l-.52.33c-.81-.43,1.16-1.36-.33-1-.48.57-.61,1.7.05,1.75-1.19.71,0,1.75-1.33,2.27-.53-.21,1.05-.55.57-1-.85-.24-1.16.83-1.81.89.73,0,.47.83.11,1.12-.82,0,.2-.78-.81-.43,0,.43-.79,1.08.09,1,0,1-1.12.2-1.38,1.07-.56-.44.44-1.76-.76-1.6.41.48-1,1.32-.09,1.9-.49,0-.72-.4-.56-.87-.75-.09-1,1.64-1.7.61l0,.66c-.27-.11-.6-.13-1-.31-.53.21-1.38,1.5-1.7.61-.13.16-1.36.64-.64,1,.91,0,.68-.8,1.44-.17-.81-.43-1,.55-1.39,1l-.21-.3c-.2.24-.83.42-.84.85a.31.31,0,0,0-.32-.45l-.06.62c-.95.7-.63-.79-1.59-.2l.61-.72c-.14.16-.69-.17-1.11.2,0,.54-.12,1.25-.13,1.68-.49.45-.48-.41-.85.31l.51-.87c0-.2-.83-.55-1.59-.21-.42.37-.91,1.36,0,1.28-.38.17-1,.12-.88-.35-.81.53.33.45-.31,1.06-.44-.18-1.59-.21-2.36-.41l.46-1.11-.53.21c.42-.9-.54-.32-.44-1.14-.4.05-.74.46-1,.77,1.49.6-.57,1.93.14,2.75-1.33.87-1.88-1.94-2.75.19.35.15,0,1.17.74.51-.94.28-.2,1.22-1.42,1.27.61-.72-1.25-.61-.36-1.66.06.35.73,0,.87-.19-.52-.21-.33-1-1.25-.61-.52.33-1.28.67-1,1.12s.83-.42.7.28c-1,.66-1.57-.09-1.62,1.07a.82.82,0,0,1,1.23.49l-.72.57v-.43c-1.42.29-.11.82-1.42,1.26l-.9-.47c0-.75,2-.51,1.31-1.42-.84.31-.9.94-1.79,1,.14-.16.36-.28.5-.45-.31.09-1.17-1.12-2,.16-.48.56,0,.42.14.81-1.28.68-1.51,1.23-2.34,1.65-.14-.81-1.54.57-.92-.58.62.25,2.51-.61,2.69-1.51-.85-.66,1.09-.32,1-1.32-1.07.43-1.38-.45-1.79-.94-.31.09-.5.45-.63.61.1.58.48.41.73.95A4.57,4.57,0,0,0,159,205a.48.48,0,0,1-.16-.92,20.73,20.73,0,0,1-4.29,1.73c1.23.5-1.41.83-.51,1.3.8-.11,1.68.24,1.44.8-.47.13-.15-.38-.41-.49-.37.71-1.21-.38-1.45.6,1.17-.82-.19-1.16-.24-1.93-.77.77-.16-.5-1.08-.11a14.31,14.31,0,0,1-1.74,1.46l-1.06.76-1.22-1.68c-.24-.33-.47-.67-.67-1,.09-1.56-1.39-3.27-1.91-4.41.08-.75,1-.67.87-1.38-.34-.76-.58.92-.72-.36l.2,0c-.32-.27-.37-2.31-1.61-2.17h1c0-.25-.29-.36-.45-.5.27-.12.4-.48.73-.21.27-.95-.72-1.43-1.07-2.19l-.28.7c-.94-1.14-.83-2.22-1.54-3.41l.49-.17-.61-.63c.54,0,.55-.83,0-1.06l2,1.45c-.05.66-.83-.35-1.16.2s.35,1.58.88,1.57c-.14-.47-.25-.45-.58-.72.6-.43.87.26,1.46.4-.13-.22-.07-.64-.3-.6a3,3,0,0,1,1.12,1.52c-.48-.41-.29.46-.57.34.61-.19,1.11.47,1.35,1.48-.39,1,1.2,1.59,1.48,2.77a4.05,4.05,0,0,1-2-1.12c0,.82.35.76.34,1.58a3,3,0,0,1,2,.88l-.42.24c.58.72,1.23.44,1.54,1.53.41,1.4,1,2.78,1.42,4l-1.95-.78,1.12-.43.24.42c.36-1.26,2.37-1.41,3.21-2.26,1.91-.31,3.58-2,4.79-1.63a57.3,57.3,0,0,1,8.68-4.27l-.26.86c.37-.71.53.21,1-.12-.85-.24.49-1,.72-1.54,1.62-.1,3.2-1.41,4.26-2.38l.24.42c.91-1.36,2.73-1.27,4.36-1.81.26.1.72.4,1.16.15.55-1.07,1-1.21,2.09-2.18a15.09,15.09,0,0,1,3.52-1c3-2.45,6.8-3.3,10.12-5.42l.48.41c3-2.57,7.69-3.37,10.41-5.19l.09,1c1-.12,2-1.13,1.52-1.65,1-.12,2.14-1.41,3-.94,1-.24,1-.9,1.73-1.35a14.27,14.27,0,0,0,4.44-1.77l-.47.13c-.11.28,0,.66.5.53.56-.53,2.56-.81,1.45-1.57,2.17-.21,4.26-2.39,6.47-2.36-.28-.22.17-.47.28-.75,1.68-.72,3.69-.89,4.82-1.94.33,0-.22.67.48.41.36-.29-.15-.38.28-.75,2.5-1.69,5.75-1.78,8.16-3,4.17-2.42,8.88-4.08,13.05-6l0,.23c1.07-1.4,3.66-.58,4.28-2.27.42.06,1.31-.44,1.24.07.88-1,3.38-.8,4.69-2.21-.16,0-.22.12-.36.29,1.84-.23,3-1.48,4.93-1.79-.14.17-.43.37-.39.6.84.12,1.21-1.56,2-.7.38-.17.06-.63-.17-.5.69-.21,1.37-.45,2-.72l-1.74,4.31c-1.3-3.22-3.2-6.35-4.79-9.53-.6-3.08,1.64-.9-.08-2.81.12-.27-.44,0-.25-.09-.66-.74.56-1.83-.23-2.2-.52.51-.52-.25-.91-.1-.33-1.9.08-2.49-1-3.65l.37,0a4.62,4.62,0,0,1-.79-.76l3.62,1.46c-1.18,1-2.68,1.42-3.41,2.75-8.74,3.94-17,8.11-25.51,11.88-8.59,3.4-16.72,7.41-25.6,10.5-2.39,0-2.53.08-4.61,1.37,0-.18.16-.27,0-.34.19.76-1.54.73-1.46,1.49-3.25,1.22-6.11,2.66-9.39,4.06.49-.3.5-1-.1-.68l-.45.73-.19-.16c-.38.28-.69.83-.16.87-8,4.11-16.72,6.13-24.73,9.73a37.73,37.73,0,0,0-6.69,3c-6.58,1.68-12.48,3.27-18.48,6.6a4.86,4.86,0,0,1,2.46-3.7"/><path class="cls-3" d="M143.78,188.22c-.26.37-.15,1.17-.86.8.3-.21.51-.74.86-.8"/><path class="cls-3" d="M153,207.31c0-.12.33,0,.42.06-.23.13-.32.52-.59.42.23-.13.12-.28.17-.47"/><path class="cls-3" d="M158,205.45c.06.35-.89,1-1.49,1.34Z"/><path class="cls-3" d="M163.11,204.81c.51.1.46.29-.08.51-.11-.15,0-.31.08-.51"/><path class="cls-3" d="M163.13,204a1,1,0,0,1,.91,0c-.13-.27-.81.54-.91,0"/><path class="cls-3" d="M173.45,200.66c.23-.13.63-.61,1-.35-.35-.14-1,.89-1,.35"/><path class="cls-3" d="M177.86,198.23c.16,0,.24,0,.38-.17.34,0,.14.38-.08.51Z"/><polygon class="cls-3" points="261.33 161.38 260.9 161.75 260.84 161.41 261.33 161.38"/><path class="cls-3" d="M254.5,136.29c-.41.41-.47-.15-.57-.16.43-.22,0,.46.57.16"/><polygon class="cls-3" points="235.32 146.27 235.47 146.2 235.7 146.87 235.32 146.27"/><polygon class="cls-1" points="183.31 68.73 234.33 196.33 202.05 196.33 192.73 172.24 183.79 149.07 152.73 68.73 183.31 68.73"/><polygon class="cls-4" points="27.44 209.01 19.54 189.95 247.35 95.47 255.26 114.52 27.44 209.01"/><path class="cls-4" d="M25.78,208.31c.89,1.75.15-1.21.74,1.08a1.1,1.1,0,0,1-.74-1.08"/><path class="cls-4" d="M33.79,207.33c5.15-4.07,13.52-5.59,19.48-9.29.72-.38.18,1,1.78.07,5.66-3.86,15.74-7.14,23.7-9.28l-.35.44c1.51-.41,2.92-2,4.49-2.5.08.17-.39.44.06.53.17-.67,2.65-1.38,3.14-2,.68-.05.79.38,1.67.28l.63-.95c1.85-2.39,5.93-2.35,8.94-4.43-.1.2-.39.44-.07.47,5-3,11.67-5.64,17.47-8.41-.15.31-.21.77.23.86,0-.74,1.81-1.65,3.35-2.43,1,.33,2.49-1.71,4.5-2.13l-.1.2c1.1-1.23,2.2-.47,3-1.72l1.08.13c.24-1.14,2.19-.37,3.14-1.29l-.11-.17c1-.66,1.73-.45,2.66-1l.14.06c2.24-1.2,3.8-1.27,3.45-1.94,1,.22-2.16,1.19-.54,1.47,7.38-3.9,15.36-7,23.08-10.26,1-.08,1.59-.23,1.89,0,.71-.46,2.85-1.34,3.41-2-.25.12.65.15,1.07,0,1.51-.32,1.22-1.4,2.89-1.73-.54.44-.65.75-.34.92,1.09-1.09,2.89-1.73,4.37-2.55-.19.22-.54.44-.39.64,1.45-1.32,3.16-1.16,4.49-2.17l-.39.63c2.6-.51.36-1.13,2.56-1.71-.45.33-.2.42-.23.62,1.63-1.53,4.87-2.59,6.7-3.64a.15.15,0,0,0,0,.2c2.07-1,4.36-1.65,6.55-2.93.92-.17.13,1.09,2.3,0-.41-.77,3.65-1.9,2-2.27,2-.66,5.1-1.61,6.25-2.4-.73.66,1.33.6-.22,1.32h1.4c0,.4-1.28.4-.73.65a33.29,33.29,0,0,1,3.72-1.8c1.27-1.1,2.23-2.58,4.57-3.67-1,.78,1,.62.3,1.08l2.68-2.91c.77-.37.43.56,1.49-.13-.15-.19.3-.53.57-.84.34,0,3.21-1.57,3.88-.91.48.16-1.22.7-.23.62,1.46-.61,1.41-.91,2.87-1.53l.07.09c1-.28,2.7-1.52,1.47-1.52-.68.26.45.37-.64.55.49-.74,2.13-1.58,3.59-2.19-.45.33-.3.52-.4.82a36.39,36.39,0,0,1,5.79-3.67c-.12-.39-.54,1-.94,1,3-.64,5.5-3.15,8.16-3.36-.36.23-.43-.45-.36-.36,1.37-.52,1.54.06,2.34-.51.22.28,1.07-.56,1.94-1,.37-.43.3.06-.48.42a38.79,38.79,0,0,1,9.13-4.14c-.15-.19,1.47-1.52,2.15-1.78l-.06.6a1.74,1.74,0,0,0,.59-.1l-1.3,3.15c-.24-.76-.79-1.71-.5-1.94-.58-.57,0,.64.71,1.85l1.18-2.84c-1.31.72-2.63,1.48-1.72.82.39.12,1.14-.55,1.66-1l-1.26,3c-.29-.37-.45-.63-.1-.58-.58-1.34-1.68-2.42-1.75-3.9.07.41,1.14.81.65-.27-.89-1.88-.46-.45-1.28-1.94l-.61-.89c-.51.14-.65-1.74-.89-.81.3-.4-1.41-2.69-.52-2.82h.74c-.39-.81-1.23-1.08-1.78-1.62,0-.13,0-.4.17-.4-1,.27-.74-2-1.9-2.69a22.87,22.87,0,0,0-1-3L248.39,98a5.52,5.52,0,0,1-2.52.56,11.94,11.94,0,0,1-3.91,2.13c.27-.22.67-.42.67-.66-1.08.11-1.21.47-2,1,.14-.23-2.15.23-3.36.33-1.21.84-.54,1.17-.54,1.54-1.61-.45-3.5,2.17-5.38,1.94.41-.32,1.75-1.27.54-1.05-1.61-.45-2.16,1.72-4.31,2.08l.81.59c-1.08-.13-2.7,1.66-2.83.77-.54.56-2.42.7-1.88,1.38-3.49.68-7.67,3.64-10.22,3.08-.41.32-1.62.67-1.22,1,.94.11.94-.75,1.35-.58-.4.19-.41.44-.41.57-1.07.24-1.88.51-1.2-.52-2.42.45-1.75,2.26-4.71,3.13,0-.37-.27-.4-1.08,0l-1.35,1.2c-1.89.63-1.34-.29-1.61-.81-.94.5-2.15,1-2.43,1.56l-1.47-.18c1.07.13-.67.66-1.08,1l.4-.32c-.27-.16-1.35.46-1.9.76.28.28,1.49-.07,2.16-.23-.4.44-1.2.71-1.75,1.27,0-.62-1.75.29-2.55.55s-.81.89-1.08,1c-.14-.27-1.48.56-.94-.12.27-.22.81,0,1.21-.48-.67,0-.8-.46-1.88.39-.81.64.67.95-1.21,1.34.4-.32.4-.57.68-.91l-1.75.4.13.51c-.27,0-.14-.14-.26-.16-.28.71-2.43,1.19-2.56,1.92a21.21,21.21,0,0,1-2.69.65l.14-.1a5.55,5.55,0,0,0-3,1.49v-.12a7.22,7.22,0,0,0-2.3,1.33c-1.48.18-1.2-1.64-2.42-.42-1.34.57-1.74,1.76-1.07,1.85-2.56.68-5,2.61-7.54,2.79-.27.34,0,.37-.67.78-3.63,1.28-7.27,3.69-10.49,3.91.95-.63-.13-.51-.27-.78-.67.78-1.21,0-1.21.84.27.4.27.65,1.34.41-2,1.11-5.25,2.45-6.59,2.53.67,0,.27.28-.14.6-.14-.76-1.74-.22-2.83.52v.49l-1-.12c-.4.32-.13,1.09-1.48,1.18a.82.82,0,0,0-.53-.31c-1.08.85-2.56,2.16-4,2.35l-1.34-.17c-.54.3-1.34,1.07-.27.84-2.42.57-3.9,1.13-4.84.89-3.37,2.92-9,5.33-13.59,7.12V152c-1.34.21-.41.82-1.35,1,.27-.47-1.2-.27-.4-1-1.88.39-2,1.49-3.1,2.1,0,.49.8-.65.8,0-.13.23-2.55.68-2.56,1.42-.54-.07-.39-.67-.26-1l-.94.75c-1.61-.2,2.43-2.55.68-2.89l-.94.5c-1.21-.27,2.29-1.82-.27-1-.94.76-1.48,2-.41,1.93-2.16,1.1-.41,1.93-2.83,2.87-.81-.1,1.88-.88,1.21-1.21-1.34,0-2.15,1.22-3.22,1.46,1.21-.23.54.8-.14,1.22-1.34.21.55-.92-1.21-.27-.13.48-1.61,1.41-.13,1.1-.28,1.08-1.89.51-2.57,1.55-.8-.35,1.22-2.08-.8-1.58.53.43-2,1.73-.68,2.14-.81.15-1.07-.26-.67-.82-1.2.09-2.15,2.09-3,1.12l-.13.72c-.41,0-.94,0-1.62-.07-.94.38-2.69,2-3,1.13-.26.21-2.41,1.06-1.34,1.31,1.48-.19,1.35-1.07,2.42-.57-1.21-.27-1.88.88-2.56,1.42L91,164.9c-.4.32-1.49.68-1.62,1.16.27-.34,0-.49-.4-.42l-.27.71c-1.75,1-.81-.71-2.55.18l1.21-1c-.27.21-1.08,0-1.88.51-.14.6-.54,1.42-.68,1.9-.93.63-.67-.33-1.48.56l1.08-1.1c.14-.24-1.2-.4-2.56.18-.8.52-1.87,1.75-.4,1.44-.68.29-1.75.4-1.35-.16-1.48.8.41.41-.8,1.26-.67-.08-2.56.18-3.77.16L76.62,169l-.93.37c.94-1.11-.8-.22-.4-1.15a5.52,5.52,0,0,0-1.89,1.12c2.29.28-1.48,2.29-.54,3-2.43,1.31-2.55-1.67-4.57.92.54.07-.41,1.31,1.08.38-1.62.55-.67,1.41-2.7,1.78,1.21-1-1.88-.36-.13-1.75,0,.37,1.21-.22,1.48-.43-.8-.1-.27-1-1.88-.35-.95.5-2.29,1.08-1.88,1.5s1.48-.68,1.08.13c-1.88,1-2.56.31-3,1.62,1.21-.59,1.75-.16,1.88.23l-1.34.83.13-.48c-2.42.7-.41.94-2.69,1.77L59,178.18c.28-.84,3.37-1.07,2.55-1.92-1.47.56-1.74,1.27-3.22,1.58.27-.21.68-.41.94-.63-.54.18-1.61-.94-3.36.7-.95.75-.14.48,0,.87-2.29,1.08-2.83,1.76-4.31,2.44,0-.86-2.69,1-1.34-.41.94.12,4.3-1.33,4.84-2.38-1.21-.52,1.89-.64,2-1.73-1.88.76-2.15-.14-2.68-.58a4,4,0,0,0-1.21.84c0,.62.68.33.94.86a13.09,13.09,0,0,0-5,2.85c-.81,0-.81-.59,0-1a63.86,63.86,0,0,1-7.54,3c1.89.23-2.55,1.3-1.21,1.58,1.35-.33,2.69-.17,2.15.51-.81.27-.13-.39-.54-.44-.81.89-1.88-.11-2.56,1,2.16-1.22,0-1.24.14-2.09-1.48,1.06-.13-.51-1.75.16a43,43,0,0,1-5.11,3.08c-2.55.3-5.78,2.38-7.8,3.25-1.21.1-.8-1-2-.62-1.35.58,1.35.41-.8.89l.13-.23c-.29.23-1.41.51-2.39.92l.5-1.2c.35.84.81,1.58,1.43,1.65L20.73,191a2.31,2.31,0,0,0,.63.95c-.26.13-.33.67-.76.13-.06,1.48,1.17,2.56,1.75,3.9l.13-1.07c1.34,2.15,1.49,3.89,2.59,6.05l-.51.13.84,1.21c-.6-.13-.4,1.21.28,1.75l-2.61-3c-.11-1.08,1,.81,1.24,0s-.79-2.69-1.39-2.83a3.1,3.1,0,0,0,.82,1.35c-.56.54-1-.67-1.73-1.08.2.4.24,1.08.49,1.08a8.65,8.65,0,0,1-1.63-2.83c.64.81.21-.67.54-.4-.63.14-1.35-1.08-1.88-2.83.12-1-.64-1.91-1.36-3l-.64-1L19,188.6a7.86,7.86,0,0,1,2-1,7.7,7.7,0,0,1-1.59,1.9l-.45.4.2.22a8.59,8.59,0,0,1,.64.84,4.8,4.8,0,0,0-.25-1l0,0,0,0a6.12,6.12,0,0,1,1.69-.53,5,5,0,0,1,2-2.47l.27.4c1.34-.83,1.07-1.48,3-2.11,3.23-1.08,6.46-2.42,8.88-3.36l.27.4c.94-1.49,4.3-2.19,5.92-3.35,3.23-.84,6.46-3.17,8.34-3.06,5.25-2.57,9.82-4.86,15.47-7l-.67,1c.8-.88.8.1,1.75-.4-1.34,0,1.09-1.23,1.61-1.9,2.69-.53,5.66-2.4,7.68-3.76l.27.4c1.88-1.75,4.84-2.13,7.67-3.14a2.86,2.86,0,0,0,1.87-.14c1.21-1.34,2-1.61,4-3a45.53,45.53,0,0,1,6.06-2c5.65-3.51,12.11-5.44,18.16-8.66l.67.33C120.1,144,128,141.85,133,139.12l-.14,1.09c1.75-.41,3.63-1.78,3-2.23,1.75-.41,3.92-2.13,5.26-1.83,1.74-.53,1.88-1.26,3.23-2a43.77,43.77,0,0,0,7.8-3.13l-.81.27c-.27.34-.14.73.67.46,1.08-.74,4.44-1.56,2.83-2.13,3.63-.79,7.67-3.76,11.3-4.3-.4-.17.41-.57.68-.91,3-1.24,6.32-1.95,8.48-3.42.53-.05-.55.8.67.33.67-.41-.14-.38.67-.91,4.58-2.53,10-3.48,14.26-5.43,7.53-3.77,15.74-6.85,23.14-10v.25c2.15-1.84,6.18-1.59,7.67-3.64.67,0,2.29-.84,2-.25,1.75-1.39,5.77-1.76,8.34-3.68a1.88,1.88,0,0,0-.67.41c3.09-.73,5.38-2.43,8.61-3.28-.27.22-.81.52-.81.77,1.35-.08,2.43-2.05,3.5-1.3.67-.29.27-.71-.13-.51q1.79-.62,3.58-1.34l3.08-1.24,1.21,3c2.28,5.66,5.2,11.34,7.78,17a11.25,11.25,0,0,1,.4,1.92l.39,4.47-2.32.2c-2.11.19.3-1.59-2.71.4-.4-.06-.07.49-.21.3-1.4.92-2.85-.15-3.68.82.7.45-.56.64-.43,1-3.22.86-4.07.55-6.27,2l0-.41c-2.44,2.1-5.91,3-7.85,5-15.48,6.65-30.15,13.43-45.27,19.85-15.08,6-29.57,12.59-45,18.34-3.93.61-4.18.75-8,2.73.1-.21.33-.34,0-.36.1.79-2.73,1.21-2.82,2-5.69,2.2-10.79,4.55-16.58,7,.88-.46,1.1-1.23,0-.73l-.95.93-.27-.12c-.7.41-1.37,1.1-.5,1C101.87,184.3,87,188.81,72.78,194.9a116.25,116.25,0,0,0-11.83,5c-11.29,3.57-21.44,6.88-32.24,12.14,0,0,.68-2.44,5.08-4.76"/><path class="cls-4" d="M24.8,206.17c.19-.54-.14-1.89.75-1.07-.28.26-.38,1.07-.75,1.07"/><path class="cls-4" d="M38.69,184.84c0-.12.54-.06.67,0-.41.2-.67.66-1.08.62.41-.2.28-.34.41-.57"/><path class="cls-4" d="M47.43,181.46c0,.37-1.75,1.39-2.82,1.88Z"/><path class="cls-4" d="M56,179.42c.81,0,.67.2-.27.58-.14-.14.14-.35.27-.58"/><path class="cls-4" d="M56.31,178.46a2.49,2.49,0,0,1,1.48-.19c-.14-.26-1.48.81-1.48.19"/><path class="cls-4" d="M74.2,172.12c.41-.2,1.21-.84,1.75-.65-.54-.06-1.88,1.25-1.75.65"/><path class="cls-4" d="M82.14,168.27a1.55,1.55,0,0,0,.67-.29c.54-.06.13.39-.27.58Z"/><polygon class="cls-4" points="229.72 105.58 228.91 106.1 228.91 105.73 229.72 105.58"/><path class="cls-4" d="M227,123.45c-.79.56-.73,0-.9,0,.78-.36-.13.51.9,0"/><polygon class="cls-4" points="192.71 139.54 192.97 139.42 193.16 140.11 192.71 139.54"/></g></g></svg>