<svg xmlns="http://www.w3.org/2000/svg" width="220" height="72.831" viewBox="0 0 220 72.831">
  <g id="logo-alefpa" transform="translate(-0.01)">
    <path id="Tracé_1" data-name="Tracé 1" d="M93.318,43.889h27.051v-4.84H99.3V4.838h21.07V0H93.318ZM67.784,0h-5.94V43.889H86.767V38.894H67.784ZM32.721,0,15.17,43.889h4.6a1.94,1.94,0,0,0,1.285-.43,2.4,2.4,0,0,0,.733-.977l4.09-10.6,1.652-4.288,6.9-17.82q.3-.794.628-1.852t.657-2.311a33.181,33.181,0,0,0,1.317,4.134L43.927,27.6l1.652,4.288,4.1,10.6a2.443,2.443,0,0,0,.733,1.012,1.979,1.979,0,0,0,1.285.4H56.3L38.752,0ZM190.611,13.6a15.084,15.084,0,0,0-1-5.605A11.027,11.027,0,0,0,186.6,3.707,13.9,13.9,0,0,0,181.5.977,24.027,24.027,0,0,0,174.254,0H161.3V43.889h5.913V27.471h7.042a22.037,22.037,0,0,0,7.015-1.026,14.58,14.58,0,0,0,5.131-2.861,12.048,12.048,0,0,0,3.14-4.381,14.262,14.262,0,0,0,1.073-5.605M183.994,17.3a7.79,7.79,0,0,1-1.979,2.893,9.183,9.183,0,0,1-3.262,1.884,13.683,13.683,0,0,1-4.489.674h-7.052V4.686h7.042q5.241,0,7.819,2.358a8.463,8.463,0,0,1,2.588,6.553,9.889,9.889,0,0,1-.674,3.707M211,0h-6.033L187.417,43.889h4.594a1.94,1.94,0,0,0,1.285-.43,2.375,2.375,0,0,0,.733-.977l4.112-10.6,1.652-4.288,6.9-17.82q.3-.794.626-1.852t.66-2.311A33.178,33.178,0,0,0,209.3,9.744l6.89,17.854,1.654,4.288,4.1,10.6a2.444,2.444,0,0,0,.733,1.012,1.984,1.984,0,0,0,1.285.4h4.6ZM128.914,43.889h5.974V4.838h21.07V0H128.914Z" transform="translate(-11.456)" fill="#fff"/>
    <path id="Tracé_2" data-name="Tracé 2" d="M90.814,106.336l.034-.02-.169-.046Z" transform="translate(-68.516 -80.304)" fill="#e84e1b"/>
    <path id="Tracé_3" data-name="Tracé 3" d="M188.9,123.94a.565.565,0,0,1,0,.064C188.924,123.977,188.924,123.955,188.9,123.94Z" transform="translate(-142.736 -93.656)" fill="#e84e1b"/>
    <path id="Tracé_4" data-name="Tracé 4" d="M32.917,85.472h0a1.292,1.292,0,0,0-.137-.012A.215.215,0,0,0,32.917,85.472Z" transform="translate(-24.763 -64.578)" fill="#e84e1b"/>
    <path id="Tracé_5" data-name="Tracé 5" d="M57.023,67.438c1.109.244,2.182,1.014,3.269.931a1.466,1.466,0,0,0,1.3-.244,24.75,24.75,0,0,1-5.51-2.341,12.666,12.666,0,0,1-2.109-.733c-2.539-.867-4.921-2.2-7.553-2.952.11.115-.068.161-.213.142v-.068l-.244.056c-.2-.059-.056-.191.11-.154-1.021-.371-1.955-.65-2.932-1.048-.134.166-.523-.181-.63,0-.032-.056.015-.049.056-.078a1.987,1.987,0,0,1-1.319-.638c-2.632-1.141-5.275-1.955-7.9-2.971-2.688-.938-5.376-1.73-8.159-2.688-.53.151-1.058-.2-1.652-.12l.066-.081c-.44-.017-.516-.191-.924-.467l-.542-.364-.574.887-.064.1c.105.046-.046.22.159.208.083.244-.374.244-.391.542-.064-.012.108.032.032.068-.037.772-.049-.169-.542.65-.315,1.036-.557,2.123-.938,3.11l-.323.836.858.349c.208.081.413.169.611.261-.076-.017-.059-.171.064-.132,0,.33.428.066.594.244-.037.056-.144.037-.208.044.489.315,1.009.3,1.466.616.525.054.994.506,1.368.476-.117.086.186.164.271.259.474-.217.9.462,1.422.393l-.037.054c1.322.452,2.724,1.051,4.154,1.393A18.19,18.19,0,0,0,32.5,65c.173.015.076-.105.215-.093.21.086-.042.107.027.176a6.01,6.01,0,0,1,1.481.567c.083-.032.244,0,.215-.093.489.442,1.4.42,1.938.809-.1-.374.41-.032.645-.027.112.056.1.137.042.183a4.376,4.376,0,0,1,1.195.489c.259.056.384-.081.662.071.11.274.616.244.877.415,0-.2.41-.21.672-.029l-.181.217c.977.176,2.2.943,3.4,1.024l.027.173a30.827,30.827,0,0,0,3.377.924,5.114,5.114,0,0,0,.99.506,2.263,2.263,0,0,0,.909-.024c.149.039.2.188.232.259.489.217.872.594,1.351.5l-.029.13a2.607,2.607,0,0,1,1.442.369c.164-.068.618.049.472-.166.183.037.034.244.259.181l-.23.12a18.934,18.934,0,0,0,2.808.867c.2.315.916.308,1.412.623.359,0,.848.364,1.18.186l-.029.13c.418.169.977.376,1.52.64h.015l.4.193.227-.489c.139-.3-.039-.367-.012-.64l.13.032a.784.784,0,0,0-.205-.572l.039-.108c.083-.13.049-.193.186-.352a1.239,1.239,0,0,0,.181.662c.178-.323,0-.782.257-.924.147-.264.181-.489.049-.589.049,0,.147-.142.159.017a1.073,1.073,0,0,0,.088-.5.831.831,0,0,0-.066.132c-.078-.134-.022-.313-.154-.367l.1-.271c.115.024.1.313.22.188l-.086-.56.367-1Zm-.547-.347c.205.029.169.13.154.205l-.775-.283A3.563,3.563,0,0,0,56.476,67.091ZM48.95,64.464c.657,0,1.119.652,1.688.415l.213-.11c.115.115.064.225.149.32.154-.066.542.164.665.044.037.088-.059.076-.073.125.244.132.655,0,.889.149l-.108.046a17.255,17.255,0,0,0,1.544.858l-5.784-2.1a6.493,6.493,0,0,0,.894.166C49.06,64.422,48.992,64.43,48.95,64.464ZM60.31,71.631a.489.489,0,0,1-.093.244Zm.276-.733.046-.134a.3.3,0,0,1-.046.132Z" transform="translate(-14.72 -40.518)" fill="#e84e1b"/>
    <path id="Tracé_6" data-name="Tracé 6" d="M31.28,66.012a.192.192,0,0,0,0-.022h0Z" transform="translate(-23.629 -49.866)" fill="#e84e1b"/>
    <path id="Tracé_7" data-name="Tracé 7" d="M367.207,69.844l-.161-.907h0l-.1-.557.059.1c-.071-.169-.029-.386.1-.337l-.147-.327h.147a13.836,13.836,0,0,0-.3-1.564l-.105.244a3.819,3.819,0,0,0-.176-.511l-.064-.359a.594.594,0,0,1,.024-.144c.081.149.134.022.215,0-.042-.076-.115-.154-.108-.244l.213.09a.606.606,0,0,1-.215-.43l-.046-.244-.244.044a5.776,5.776,0,0,0-.616.093l.042-.056c-.538,0,.115.122-.244.188-.305,0-.159-.244-.452-.3a6.924,6.924,0,0,1-2.013.359,9.372,9.372,0,0,0-1.366.489c-.418.073-.02-.259-.425-.073.032-.093-.044-.173-.1-.244-.039.105-.787.125-.413.283a13.464,13.464,0,0,0-1.943.32c.21-.054.244-.22.049-.266a2.82,2.82,0,0,1-1.322.437c.037.159.213.127.183.293a.882.882,0,0,1-.33.147c-.108-.154-.127-.413-.613-.335.083-.283.828-.11.564-.33a1.745,1.745,0,0,1,1.266-.32c.391-.3-.342.034-.3-.2-.386.086-.545.232-1.144.371.015.115.22.093-.039.244-.489.327-.7-.046-.836-.032.073-.042.181-.068.244-.108-.369-.015-.464.159-.843.213-.156-.279.594-.139.7-.347l-.308-.164c-.584.071-.115.271-.733.3l.054-.12-.359.132c.015.112.122.266.44.188-.161.325-.288.093-.784.244-.132.193.213-.051.244.108s-.271.208-.518.279c-.418.073-.244-.139-.435-.22.076-.039.391-.117.374-.017.489-.261-.283-.3.051-.489-.406-.027-.359.161-.55.244.112,0-.034.176.064.22-.606.562-.489-.244-1.136-.054.188.259-.8.55-.271.777a1.168,1.168,0,0,1-.5.178c.137-.225-.32-.1-.044-.337l-.244.039.318-.293c-.288-.086-.75-.139-.906-.205-.33.147.139.166-.244.286.122-.127-.137-.166-.315-.132.369,0,.054.271-.161.359-.349.064-.662-.068-.618-.122l.31-.225c-.244.186-.127-.054-.381.051-.056.12-.188.315-.244.467-.215.086-.4-.027-.472,0l.335-.178c-.459.125-.154-.279-.618-.117l-.1.171c-.1,0-.156-.068-.078-.139-.054.12-.33.144-.44.205l-.051-.093c-.186.1-.4.364-.674.213.232.205.244-.039.6,0,.244.137-.31.225-.381.264-.024-.259-.52.068-.76.108-.159-.066-.288-.086-.384-.127l-.064.186c-.149-.313-.469.161-.76.108.122-.127.078-.244-.122-.266.3.2-.369.379-.261.53-.506,0,.059-.33-.117-.489-.208.244-.564-.027-.684.244.366.012-.027.164-.083.286-.447.059.056-.122-.274-.154-.181.066-.391.3-.09.318-.271,0-.52.279-.838.181-.147-.132.533-.166.345-.244-.621.093-.244.432-.809.586.259.039.071.352-.188.489-.65.046.259-.139-.017-.293l-.244.076c-.4-.208.674-.572.3-.733l-.259.139c.046-.088.11-.244-.015-.293-.037.2-.635.159-.677.213-.029.166.215-.083.193.046-.286.1-.369.379-.838.362.227-.156-.132-.2-.046-.308-.23-.027-.037.2-.367.166l.02-.1a10.743,10.743,0,0,0-3.577,1.016,3.189,3.189,0,0,0-1.2-.081c.266,0,.039.164-.105.208l-.3-.132a2.005,2.005,0,0,0-1.075.364.222.222,0,0,1-.112-.12c-.325-.066-.3.159-.408.22l-.222-.093-.02.132c-.293.127-.7.166-.7-.046-.11.061-.222.12-.059.154a4.927,4.927,0,0,0-1.693.244c.266,0,.257.076.3.2-.039.232-.13-.02-.327.147-.02-.081-.281-.12-.027-.227a10.043,10.043,0,0,0-2.688.359c-.181.066-.117.093-.2.166-.621-.12-1.288.244-1.93.244.156.068,0,.359-.342.425-.347.244-.2-.225-.56-.271a1.549,1.549,0,0,1-.608.205v-.034a1.17,1.17,0,0,1-.775.208l.037-.02a4.4,4.4,0,0,0-.672,0c-.066.186-.6.171-.7.345-.029-.012,0-.034-.056-.059v.144h-.437c.083-.073.093-.139.205-.2-.467-.02-.129.159-.352.279-.3.161-.305.015-.467-.017.117-.1.244,0,.31-.049.159-.147-.2,0-.22-.093-.068,0-.066.188-.3.193s-.662.147-.635-.02c-.156.112-.359.132-.476.225.169,0,.472,0,.525.081-.144.046-.43.139-.489.078l.11-.059c-.11.059-.552.088-.3.193l-.342-.147c-.093.139-.4.186-.652.259-.039-.156.134-.371-.347-.325l-.376.244c-.213.054-.274.027-.244-.073-.748.039-.672.572-1.271.533.208-.244,0-.215-.264-.22a.139.139,0,0,1-.125.125c.09.076.13-.159.349-.066.083.108-.222.12-.335.181-.582-.32-1.71.2-2.583.154.1.217-.359.132-.513.244,0-.244-.459.125-.714.02l.166.213c-.528-.044-.762.5-1.124.274-.3-.02.066-.186.178-.244-.437-.186-1.014.393-1.376.166-.02.1.127.244-.2.379-.293-.051-.86-.081-.819-.132-.217.086-.266.171-.528.132.012-.066.117-.093.191-.134a2.546,2.546,0,0,0-1.031.315,1.163,1.163,0,0,0-.626-.017l-.711.093.1.775a4.982,4.982,0,0,1,.068.76c.264.215.039.748.33.733-.032,0-.059.059-.071.088.112.154.32.259.371.472l-.2-.037c-.23,0,.022.535-.029.674.1-.147.032.266.171.259l.1.244c.12.4.1.032.215.523.061.279-.2.134-.193.034a1.283,1.283,0,0,0,.127.721c-.017-.09,0-.125.049-.046a.073.073,0,0,0-.042.064,1.828,1.828,0,0,1,.078.274h0c-.029-.1-.054-.193-.068-.261a1.045,1.045,0,0,0,.027.269.215.215,0,0,0,.012.073v.068l.042.6L308,80.92l-.12-.386.2.381h.151l-.137.042.056.11.32-.169h.056a.388.388,0,0,1,.144,0l-.042.161c.173-.024.623-.276.6-.337a8.22,8.22,0,0,0,2.243-.457c-.081.049-.081.1,0,.032.23-.071.472-.244.511-.151.217-.1.23.064.582.015a.137.137,0,0,0-.017-.112c.628.086,1.319-.4,2.052-.369-.061-.029-.149.105-.208.176a7.441,7.441,0,0,0,1.493-.584c-.042.076-.015.134-.137.2a2.022,2.022,0,0,0,.96-.352c-.269-.022,0,.083-.176.108-.3-.081.166-.3.42-.313l.015.032c.376-.071.379-.154.755-.222.244.044-.191.076-.083.151.13.217.887,0,.977,0,.078-.066.2-.13.176-.191.283-.115.159.115.359.066l.694-.54h.044c.039.064.269.142.061.244a2.329,2.329,0,0,0,.877-.418l1.354-.244c-.12.083.191.183.02.291a8.134,8.134,0,0,1,1.605-.244c-.367-.2.53-.244.572-.445l.347-.061c.108.044.051.171.2.183a14.9,14.9,0,0,1,1.71-.357.046.046,0,0,1-.012.054,9.574,9.574,0,0,0,1.735-.52h.032c0,.046.032.083-.081.139.3,0,.286-.1.315-.181l.332-.059-.081.093c.364-.181.765-.027,1.173-.286h0c.027.064-.066.1-.122.147a8.1,8.1,0,0,0,.977-.3l.205-.037c0,.051-.049.105-.151.161.308.017.376-.149.547-.23l.244-.044c.11,0,.3.059.244.073a2.138,2.138,0,0,1,.638-.227l.308-.054a1.882,1.882,0,0,0,.415.088c1.923-.345,3.909-.655,5.781-1.18l.244-.042c.3.169-.457.22-.222.345-.051-.2.325-.12.914-.293l.032.024c.244-.09.415.017.682-.1l-.02-.054c.271-.186.7.151.809-.139l.244.108c.244-.286.474,0,.8-.266l-.034.049c.5.02.955-.43,1.173-.276a2.473,2.473,0,0,0,.836-.323l.137-.022a.244.244,0,0,1-.044.159c1.09-.261,2.282-.467,3.362-.733l8.442-1.488a16.371,16.371,0,0,0,2.839-.489l1.126-.2c.017.039.034.071.1.051.154-.059.313-.108.474-.154Zm-.325-2.05a.073.073,0,0,1-.039.034l-.071-.4a.22.22,0,0,0,.059-.017c-.042-.078-.068-.115-.09-.161l-.034-.193A.8.8,0,0,1,366.882,67.794Zm-.53-2.746ZM366.2,64.943ZM308.894,80.678l-.176.054a.432.432,0,0,1,.186-.054Z" transform="translate(-231.753 -48.831)" fill="#009ee2"/>
    <path id="Tracé_8" data-name="Tracé 8" d="M529.722,65.43a.733.733,0,0,0-.222.105A.244.244,0,0,0,529.722,65.43Z" transform="translate(-400.113 -49.443)" fill="#009ee2"/>
    <path id="Tracé_9" data-name="Tracé 9" d="M499,70.206a.489.489,0,0,0,.178-.046A.594.594,0,0,0,499,70.206Z" transform="translate(-377.065 -53.017)" fill="#009ee2"/>
    <path id="Tracé_10" data-name="Tracé 10" d="M309.015,119.8l-.015.024A.058.058,0,0,0,309.015,119.8Z" transform="translate(-233.491 -90.528)" fill="#009ee2"/>
    <path id="Tracé_11" data-name="Tracé 11" d="M337.971,126.86l-.061.02C337.912,126.921,337.932,126.894,337.971,126.86Z" transform="translate(-255.337 -95.863)" fill="#009ee2"/>
    <path id="Tracé_12" data-name="Tracé 12" d="M310.79,127.07v.029h0Z" transform="translate(-234.843 -96.021)" fill="#009ee2"/>
    <path id="Tracé_13" data-name="Tracé 13" d="M527.68,65.378c-.139,0-.283-.115-.437,0-.1-.039.1-.173-.107-.154-.161.147.151.279.489.279l.022.017a.107.107,0,0,1,.034-.142Z" transform="translate(-398.293 -49.286)" fill="#009ee2"/>
    <path id="Tracé_14" data-name="Tracé 14" d="M312.02,131.235l.015.051.081-.027-.015-.029Z" transform="translate(-235.773 -99.165)" fill="#009ee2"/>
    <path id="Tracé_15" data-name="Tracé 15" d="M552.69,67.42a.2.2,0,0,0,.061.027Z" transform="translate(-417.637 -50.946)" fill="#009ee2"/>
    <path id="Tracé_16" data-name="Tracé 16" d="M529.36,66.47a.245.245,0,0,0,.029.046C529.394,66.5,529.384,66.487,529.36,66.47Z" transform="translate(-400.007 -50.229)" fill="#009ee2"/>
    <path id="Tracé_17" data-name="Tracé 17" d="M552.2,81.745c.088-.12.088-.457.271-.22-.09.049-.171.244-.271.22" transform="translate(-417.266 -61.543)" fill="#009ee2"/>
    <path id="Tracé_18" data-name="Tracé 18" d="M530.574,65.88c0,.032-.132-.02-.164-.034.108-.027.193-.132.288-.093-.108.027-.081.073-.125.127" transform="translate(-400.801 -49.68)" fill="#009ee2"/>
    <path id="Tracé_19" data-name="Tracé 19" d="M521.89,66.668c.02-.1.489-.257.762-.318Z" transform="translate(-394.363 -50.138)" fill="#009ee2"/>
    <path id="Tracé_20" data-name="Tracé 20" d="M512.724,67.147c-.193-.046-.151-.1.09-.137.027.044-.049.083-.09.137" transform="translate(-387.344 -50.637)" fill="#009ee2"/>
    <path id="Tracé_21" data-name="Tracé 21" d="M511.532,68.339a.557.557,0,0,1-.362-.044c.02.078.391-.122.362.044" transform="translate(-386.262 -51.59)" fill="#009ee2"/>
    <path id="Tracé_22" data-name="Tracé 22" d="M492.617,70.553c-.107.027-.33.147-.447.059.125.054.506-.21.447-.059" transform="translate(-371.904 -53.278)" fill="#009ee2"/>
    <path id="Tracé_23" data-name="Tracé 23" d="M484.754,72.465a.35.35,0,0,0-.173.034c-.132-.02-.012-.112.09-.139Z" transform="translate(-366.125 -54.679)" fill="#009ee2"/>
    <path id="Tracé_24" data-name="Tracé 24" d="M329.31,101.648l.22-.088-.017.1Z" transform="translate(-248.838 -76.745)" fill="#009ee2"/>
    <path id="Tracé_25" data-name="Tracé 25" d="M379.348,117.191l-.068.015-.01-.2Z" transform="translate(-286.591 -88.419)" fill="#009ee2"/>
    <path id="Tracé_26" data-name="Tracé 26" d="M757.67,134.756a.244.244,0,0,0,.115-.046A.266.266,0,0,0,757.67,134.756Z" transform="translate(-572.531 -101.795)" fill="#f29100"/>
    <path id="Tracé_27" data-name="Tracé 27" d="M889.45,80.932a.07.07,0,0,0,0-.022h0Z" transform="translate(-672.112 -61.14)" fill="#f29100"/>
    <path id="Tracé_28" data-name="Tracé 28" d="M763.334,76.783a2.535,2.535,0,0,1-.081-.54c-.264-.122-.049-.538-.337-.489.032,0,.059-.051.071-.076-.112-.1-.32-.144-.371-.293h.2c.244-.024-.068-.44.034-.513-.122.173-.044-.171-.186-.147l-.107-.159c-.122-.271-.1,0-.217-.352-.064-.2.193-.125.188-.051a.675.675,0,0,0-.137-.508c.02.064,0,.093-.044.042a.066.066,0,0,0,.037-.056.865.865,0,0,1-.078-.183h0c.029.066.054.13.071.176a.617.617,0,0,0-.029-.183c.012,0,0-.032-.015-.059a.3.3,0,0,1,0-.154h.156c-.024-.125-.279-.415-.337-.389a3.064,3.064,0,0,0-.188-.877l-.244-.682-.589.205a4.909,4.909,0,0,0-.691.293c.051-.046.046-.093,0-.029-.156.073-.31.244-.349.156-.147.1-.176-.059-.428,0a.27.27,0,0,0,.029.112c-.469-.076-.907.408-1.444.393.049.027.1-.105.13-.176a4.056,4.056,0,0,0-.982.6c.02-.076,0-.132.073-.2a1.131,1.131,0,0,0-.65.362c.2.017,0-.083.115-.108.225.076-.081.3-.266.313l-.015-.029c-.264.073-.244.156-.518.23-.181-.039.127-.078.042-.149-.125-.215-.645.017-.709,0-.049.068-.129.132-.1.191-.191.115-.13-.11-.271-.059l-.43.54h-.034c-.037-.064-.21-.137-.076-.244a1.308,1.308,0,0,0-.579.432l-.953.244c.071-.083-.164-.178-.056-.283a3.549,3.549,0,0,1-1.134.244c.291.191-.354.244-.359.445l-.244.064c-.086-.042-.064-.169-.176-.173a7.982,7.982,0,0,1-1.187.374.051.051,0,0,1,0-.051,4.465,4.465,0,0,0-1.192.535h-.022c0-.046-.034-.083.042-.139-.217,0-.2.1-.208.183l-.244.061.046-.093c-.244.186-.555.039-.816.3h0c-.027-.061.037-.1.071-.144a4.007,4.007,0,0,0-.674.305l-.147.039a.19.19,0,0,1,.09-.159c-.227,0-.244.149-.364.244l-.178.046c-.081,0-.22-.054-.178-.068a1.122,1.122,0,0,1-.423.247l-.22.059a1.126,1.126,0,0,0-.313-.078,32.358,32.358,0,0,0-4.037,1.244l-.174.046c-.244-.161.3-.222.115-.342.066.2-.22.125-.625.3l-.024-.024c-.171.093-.305,0-.489.105l.022.051c-.173.186-.533-.137-.572.149l-.2-.1c-.139.283-.342,0-.542.274l.02-.049c-.367,0-.638.437-.816.288a1.373,1.373,0,0,0-.564.33l-.1.024a.306.306,0,0,1,0-.156c-.755.274-1.6.489-2.343.782l-5.945,1.593a8.411,8.411,0,0,0-1.991.533l-.794.215c-.017-.039-.037-.071-.083-.049a3.522,3.522,0,0,1-.32.156l-4.1,1.1h0l-.269.073.276,1.031-.059-.061c.073.112.034.274-.09.244l.147.217-.142.027c.159.391.093.709.318,1.1l.1-.2a1.936,1.936,0,0,0,.181.345l.068.259a.337.337,0,0,1-.022.105c-.083-.1-.132,0-.21.024.042.049.112.1.11.171l-.271-.049c.347.022.3.635.376.733l-.054-.024c0,.393.117-.1.186.147.017.22-.244.149-.286.369a4.452,4.452,0,0,0,.193.489l.205.508.4-.161a1.838,1.838,0,0,1,.919-.191,5.027,5.027,0,0,0,.926-.5c.293-.078.051.244.318.064a.394.394,0,0,0,.105.244c.015-.1.557-.132.261-.283a6.807,6.807,0,0,0,1.368-.345c-.144.056-.144.22,0,.261a1.5,1.5,0,0,1,.9-.447c-.049-.159-.171-.125-.171-.288.049-.039.12-.134.217-.147.1.149.149.4.489.318-.022.281-.586.122-.364.335a.933.933,0,0,1-.88.332c-.244.3.244-.037.244.193.269-.093.364-.244.782-.384-.024-.112-.174-.088,0-.23.315-.33.513.034.611.02-.049.042-.122.068-.169.108.269,0,.315-.164.582-.222.151.274-.411.147-.462.354l.244.156c.413-.081.044-.269.489-.305l-.024.12.244-.137a.244.244,0,0,0-.344-.178c.071-.32.2-.093.538-.244.071-.193-.147.054-.2-.1s.169-.208.34-.281c.293-.078.2.132.342.21-.046.039-.266.122-.266.022-.318.264.244.293.027.474.3.02.244-.169.374-.261-.093,0,0-.171-.083-.213.364-.562.391.244.833.037-.174-.244.511-.555.093-.77a.618.618,0,0,1,.342-.181c-.073.222.244.09.076.33l.169-.044-.193.3c.22.081.562.125.687.188.22-.149-.127-.161.144-.283-.073.122.125.159.244.125-.269,0-.078-.266.068-.357.244-.071.489.056.467.11l-.2.227c.144-.188.1.049.269-.059.024-.117.1-.31.12-.462.147-.088.3.02.342-.02l-.217.181c.315-.13.149.271.464.108l.049-.171a.083.083,0,0,1,.073.137c.024-.12.222-.149.293-.21l.049.093c.122-.1.244-.367.464-.22-.2-.2-.171.044-.44,0-.2-.134.193-.227.244-.266.054.244.367-.073.538-.117.122.061.22.081.3.12l.022-.186c.149.305.318-.164.538-.117-.071.127-.024.244.125.261-.244-.191.217-.379.12-.525.367,0,0,.325.147.469.122-.244.418.017.467-.244-.271,0,0-.164.02-.283.32-.066-.022.12.222.147.122-.068.244-.3.022-.315.2,0,.342-.281.586-.188.122.127-.364.171-.218.244.437-.1.117-.428.508-.589-.193-.034-.1-.345.071-.489.467-.054-.169.142.051.288l.171-.076c.32.2-.41.574-.117.733l.169-.142c-.022.088-.046.244.051.288,0-.2.44-.166.464-.217,0-.166-.147.086-.147-.044.2-.1.217-.379.56-.367-.144.154.122.193.076.3.171.022,0-.2.244-.169v.1a5.64,5.64,0,0,0,2.465-1.053c.174.12.442.064.882.061-.2,0-.051-.159.046-.205l.244.127c.269.039.538-.215.733-.376a.244.244,0,0,1,.1.115c.244.061.2-.161.266-.222l.174.09v-.132c.2-.13.489-.176.513.037.076-.061.147-.122.024-.154a2.518,2.518,0,0,0,1.2-.266c-.193,0-.2-.068-.244-.191,0-.23.1.017.217-.149.024.078.222.112.051.222.586.137,1.246-.276,1.906-.4.122-.066.071-.093.122-.166.464.11.9-.244,1.368-.276-.122-.064-.051-.354.191-.423.22-.244.174.217.442.259a.828.828,0,0,1,.418-.21v.034a.63.63,0,0,1,.535-.215l-.024.02a3.625,3.625,0,0,0,.489,0c.02-.183.413-.178.462-.349.022,0,0,.032.049.059l-.024-.144h.318c-.049.073-.049.137-.122.2.342,0,.073-.159.22-.279.193-.161.22-.02.342,0-.073.1-.171,0-.22.051-.1.147.147,0,.171.088.049,0,.024-.183.2-.193s.462-.154.464,0c.1-.112.244-.134.318-.227-.125,0-.344.017-.4-.071.1-.049.3-.147.345-.088l-.073.061c.073-.061.391-.1.2-.193l.269.139c.049-.139.269-.191.44-.266.049.156-.046.369.3.315l.244-.244c.147-.056.2-.032.2.066.538-.049.413-.569.853-.54-.122.244.027.21.22.213a.117.117,0,0,1,.073-.127c-.073-.071-.073.159-.244.071-.073-.1.147-.122.22-.181.467.305,1.222-.225,1.857-.191-.1-.213.244-.134.342-.244.024.244.318-.13.513-.032L759,78.483c.391.037.489-.489.784-.286.217.017-.024.186-.1.244.342.176.684-.4.977-.186,0-.1-.122-.227.1-.376.22.049.635.068.611.12.149-.088.171-.173.367-.137,0,.064-.073.09-.12.132a1.327,1.327,0,0,0,.706-.323.665.665,0,0,0,.462,0l.711-.1Z" transform="translate(-545.048 -53.871)" fill="#f29100"/>
    <path id="Tracé_29" data-name="Tracé 29" d="M722,122.41l.059.064A.208.208,0,0,0,722,122.41Z" transform="translate(-545.577 -92.5)" fill="#f29100"/>
    <path id="Tracé_30" data-name="Tracé 30" d="M873.08,75.1l.042-.02C873.112,75.046,873.1,75.061,873.08,75.1Z" transform="translate(-659.742 -56.721)" fill="#f29100"/>
    <path id="Tracé_31" data-name="Tracé 31" d="M767.63,132a.161.161,0,0,0,.122-.037c.1.02.024.11-.049.139Z" transform="translate(-580.058 -99.717)" fill="#f29100"/>
    <path id="Tracé_32" data-name="Tracé 32" d="M844.17,84.747l.046-.017.034.2Z" transform="translate(-637.896 -64.027)" fill="#f29100"/>
    <path id="Tracé_33" data-name="Tracé 33" d="M5.08,213.769a1.039,1.039,0,0,1,.081.364.594.594,0,0,1-.222.457q-.222.2-.3.183c-.425-.078-.694-.42-.809-1.031a9.717,9.717,0,0,0-.43-1.654l-.885.078a1.483,1.483,0,0,0-.8.32,14.214,14.214,0,0,0-.379,1.434,9.668,9.668,0,0,1-.43,1.447c-.071.156-.217.2-.445.13-.286-.1-.437-.225-.454-.391A3.176,3.176,0,0,1,.3,213.769a5.554,5.554,0,0,0,.442-1.346.355.355,0,0,0-.169-.261c-.12-.1-.183-.169-.183-.222a.227.227,0,0,1,.059-.137.523.523,0,0,1,.274-.117c.144-.029.225-.076.244-.137q.244-.65.733-2.424a22.48,22.48,0,0,1,.753-2.358.32.32,0,0,1,.327-.183.5.5,0,0,1,.325.117,1.505,1.505,0,0,1,.469.938c.051.357.1.713.144,1.068a40.994,40.994,0,0,0,1.363,5.063Zm-1.9-2.483a8.266,8.266,0,0,0-.171-1.08c-.086-.347-.169-.694-.244-1.043-.259.721-.489,1.442-.677,2.162a8.9,8.9,0,0,1,1.092-.039Z" transform="translate(0 -156.105)" fill="#fff"/>
    <path id="Tracé_34" data-name="Tracé 34" d="M25.46,204.507c0,.173-.125.325-.379.454a.286.286,0,0,1-.22.015l-.2-.054a.225.225,0,0,0-.156.078,2.341,2.341,0,0,0-.7,1.71,2.055,2.055,0,0,0,.117.7q.051.142.99,2.021a4.9,4.9,0,0,1,.626,2.123,2.905,2.905,0,0,1-.352,1.381,2.106,2.106,0,0,1-.586.574,1.193,1.193,0,0,1-.682.283.609.609,0,0,1-.222-.039c-.261-.112-.391-.257-.391-.43a.645.645,0,0,1,.2-.379.359.359,0,0,1,.244-.076.279.279,0,0,0,.261-.159,2.688,2.688,0,0,0,.274-1.173,5.984,5.984,0,0,0-.841-2.456,6.032,6.032,0,0,1-.841-2.573,3.135,3.135,0,0,1,.313-1.42,2.135,2.135,0,0,1,1.007-1.031,1.358,1.358,0,0,1,.586-.142,1.065,1.065,0,0,1,.821.3.44.44,0,0,1,.134.288Z" transform="translate(-17.069 -154.092)" fill="#fff"/>
    <path id="Tracé_35" data-name="Tracé 35" d="M40.465,204.507c0,.173-.127.325-.379.454a.291.291,0,0,1-.222.015c-.122-.034-.186-.054-.2-.054a.244.244,0,0,0-.156.078,2.338,2.338,0,0,0-.7,1.71,2.055,2.055,0,0,0,.115.7q.054.142.992,2.021a4.979,4.979,0,0,1,.626,2.123,2.905,2.905,0,0,1-.352,1.381,2.106,2.106,0,0,1-.586.574,1.2,1.2,0,0,1-.679.283.6.6,0,0,1-.22-.039c-.261-.112-.391-.257-.391-.43a.631.631,0,0,1,.2-.379.359.359,0,0,1,.244-.076.283.283,0,0,0,.261-.159,2.688,2.688,0,0,0,.274-1.173,5.984,5.984,0,0,0-.841-2.456,6.032,6.032,0,0,1-.841-2.573,3.1,3.1,0,0,1,.313-1.42,2.131,2.131,0,0,1,1-1.031,1.359,1.359,0,0,1,.586-.142,1.058,1.058,0,0,1,.821.3A.43.43,0,0,1,40.465,204.507Z" transform="translate(-28.411 -154.091)" fill="#fff"/>
    <path id="Tracé_36" data-name="Tracé 36" d="M57.015,216.513a3.228,3.228,0,0,1-2.175,2.06,1.479,1.479,0,0,1-.34.039A2.139,2.139,0,0,1,53,217.8a2,2,0,0,1-.508-1.42,4.547,4.547,0,0,1,.572-2.072,3.213,3.213,0,0,1,.6-.809,1.136,1.136,0,0,1,.767-.4.584.584,0,0,1,.391.156,3.783,3.783,0,0,0,.977.418,1.466,1.466,0,0,1,.887.7,3.362,3.362,0,0,1,.457,1.5A1.505,1.505,0,0,1,57.015,216.513Zm-1.041-.806c-.061-.635-.232-1.014-.508-1.136a.325.325,0,0,0-.117-.024.611.611,0,0,0-.391.259,1.222,1.222,0,0,1-.406.354c-.061.024-.147,0-.259-.078a.552.552,0,0,0-.222-.117.093.093,0,0,0-.066.024,1.515,1.515,0,0,0-.454,1.222,1.684,1.684,0,0,0,.259.953c.244.354.45.533.613.533a1.469,1.469,0,0,0,1.109-.716A1.806,1.806,0,0,0,55.974,215.707Z" transform="translate(-39.659 -161.031)" fill="#fff"/>
    <path id="Tracé_37" data-name="Tracé 37" d="M76.677,204.858c0,.244-.156.384-.469.445a1.549,1.549,0,0,0-.755.271,5.528,5.528,0,0,0-1.466,3.975,6.353,6.353,0,0,0,.364,2.165c.2.555.342.921.43,1.095a2.143,2.143,0,0,0,.794.911c.13.061.261.117.391.169a.362.362,0,0,1,.208.327.586.586,0,0,1-.134.376.291.291,0,0,1-.3.132,2.856,2.856,0,0,1-.52-.171A4.582,4.582,0,0,1,73.867,213l-.371-.621a3.055,3.055,0,0,1-.279-.606,16.518,16.518,0,0,1-.222-1.681,7.9,7.9,0,0,1-.051-.887,5.94,5.94,0,0,1,1.341-3.922,2.178,2.178,0,0,1,1.63-.938,1.087,1.087,0,0,1,.665.222C76.648,204.616,76.677,204.712,76.677,204.858Z" transform="translate(-55.111 -154.419)" fill="#fff"/>
    <path id="Tracé_38" data-name="Tracé 38" d="M89.1,210.109c.017.244.027.511.027.782q0,.887-.183,2.671t-.183,2.688v.665a.469.469,0,0,1-.508.352c-.374-.017-.577-.178-.611-.489a8.639,8.639,0,0,1-.054-.965,24.28,24.28,0,0,1,.215-2.646,23.634,23.634,0,0,0,.215-2.632,5.956,5.956,0,0,0-.024-.665.454.454,0,0,1,.442-.244.99.99,0,0,1,.489.142.151.151,0,0,1,.078-.039c.024,0,.039.044.039.132a.489.489,0,0,0,0,.181A.085.085,0,0,0,89.1,210.109Z" transform="translate(-66.181 -158.403)" fill="#fff"/>
    <path id="Tracé_39" data-name="Tracé 39" d="M100.608,213.747a1.028,1.028,0,0,1,.078.364.591.591,0,0,1-.22.457q-.225.2-.3.183c-.425-.078-.7-.42-.809-1.031a9.951,9.951,0,0,0-.43-1.654l-.885.078a1.493,1.493,0,0,0-.8.313c-.1.271-.22.748-.379,1.434a9.714,9.714,0,0,1-.428,1.447c-.071.156-.217.2-.445.13-.286-.1-.437-.225-.454-.391a3.176,3.176,0,0,1,.286-1.329,5.786,5.786,0,0,0,.43-1.354.352.352,0,0,0-.171-.261c-.122-.1-.181-.169-.181-.222a.227.227,0,0,1,.059-.137.523.523,0,0,1,.274-.117c.144-.029.222-.076.244-.137q.244-.65.733-2.424a22.476,22.476,0,0,1,.767-2.358.318.318,0,0,1,.325-.183.5.5,0,0,1,.327.117,1.53,1.53,0,0,1,.469.938c.051.357.1.713.144,1.068a40.992,40.992,0,0,0,1.361,5.07Zm-1.9-2.49a7.835,7.835,0,0,0-.169-1.08c-.086-.347-.169-.694-.244-1.043q-.393,1.08-.677,2.162a8.879,8.879,0,0,1,1.09-.032Z" transform="translate(-72.188 -156.082)" fill="#fff"/>
    <path id="Tracé_40" data-name="Tracé 40" d="M121.218,204.01a.655.655,0,0,1-.442.547q-.848.208-2.944.55-.264,3.245-.261,5.407c0,.547,0,1.085.027,1.615a1.192,1.192,0,0,1-.027.379.244.244,0,0,1-.261.2.814.814,0,0,1-.626-.32,1.2,1.2,0,0,1-.274-.684c-.017-.32-.024-.66-.024-1.016,0-.572.037-1.481.115-2.722.081-1.192.115-2.1.105-2.724a4.781,4.781,0,0,0-.977.066,8.39,8.39,0,0,1-.977.1,1.564,1.564,0,0,1-1.043-.342c-.105-.227-.156-.345-.156-.354a.305.305,0,0,1,.093-.2,8.6,8.6,0,0,1,1.71-.264,4.694,4.694,0,0,0,1.693-.42,3.264,3.264,0,0,0,1.043.156,4.328,4.328,0,0,0,1.122-.144,6.38,6.38,0,0,0,.794-.181,2.2,2.2,0,0,1,.782-.081c.156,0,.222.066.2.2C121.1,203.775,121.218,203.856,121.218,204.01Z" transform="translate(-85.722 -153.832)" fill="#fff"/>
    <path id="Tracé_41" data-name="Tracé 41" d="M139.808,210.109c.017.244.027.511.027.782q0,.887-.183,2.671c-.122,1.19-.181,2.089-.181,2.688,0,.225,0,.447.012.665a.469.469,0,0,1-.508.352c-.374-.017-.579-.178-.613-.489a8.656,8.656,0,0,1-.051-.965,23.666,23.666,0,0,1,.215-2.646,24.25,24.25,0,0,0,.215-2.632,5.418,5.418,0,0,0-.027-.665.457.457,0,0,1,.442-.244.977.977,0,0,1,.489.142.151.151,0,0,1,.078-.039c.027,0,.039.044.039.132a.652.652,0,0,0,0,.181A.1.1,0,0,0,139.808,210.109Z" transform="translate(-104.507 -158.404)" fill="#fff"/>
    <path id="Tracé_42" data-name="Tracé 42" d="M151.785,216.513a3.228,3.228,0,0,1-2.175,2.06,1.466,1.466,0,0,1-.34.039,2.124,2.124,0,0,1-1.5-.809,2,2,0,0,1-.508-1.42,4.52,4.52,0,0,1,.574-2.072,3.149,3.149,0,0,1,.6-.809,1.136,1.136,0,0,1,.77-.4.586.586,0,0,1,.391.156,3.709,3.709,0,0,0,.977.418,1.466,1.466,0,0,1,.887.7,3.362,3.362,0,0,1,.457,1.5A1.505,1.505,0,0,1,151.785,216.513Zm-1.041-.806q-.09-.953-.508-1.136a.325.325,0,0,0-.117-.024.611.611,0,0,0-.391.259,1.222,1.222,0,0,1-.406.354c-.059.024-.147,0-.259-.078a.552.552,0,0,0-.222-.117.086.086,0,0,0-.064.024,1.508,1.508,0,0,0-.457,1.222,1.666,1.666,0,0,0,.261.953c.244.354.447.533.611.533a1.469,1.469,0,0,0,1.109-.716A1.806,1.806,0,0,0,150.744,215.707Z" transform="translate(-111.272 -161.031)" fill="#fff"/>
    <path id="Tracé_43" data-name="Tracé 43" d="M174.451,205.38c-.12,1.166-.244,2.333-.352,3.506a34.207,34.207,0,0,0-.22,3.479c0,.3,0,.6.024.9a.445.445,0,0,1-.149.364.52.52,0,0,1-.371.156c-.269,0-.489-.183-.677-.547a45.222,45.222,0,0,1-2.072-5.109c-.02-.051-.039-.076-.066-.076s-.1.059-.117.181a33.515,33.515,0,0,0-.222,3.924q0,.99.054,2.018a.542.542,0,0,1-.222.523.283.283,0,0,1-.2.09.535.535,0,0,1-.244-.078l-.244-.117c-.115-.034-.183-.139-.21-.313a3.43,3.43,0,0,1-.024-.43q-.042-.733-.042-1.525,0-1.381.159-3.453.244-3.154.274-3.494c0-.191.169-.286.489-.286.147-.017.364.09.652.325A20.477,20.477,0,0,1,171.7,208a17.87,17.87,0,0,0,1.068,2.592q.2-1.73.613-5.239c.027-.173.152-.259.379-.259a1.114,1.114,0,0,1,.274.039c.139.034.22.056.244.066A.266.266,0,0,1,174.451,205.38Z" transform="translate(-127.774 -154.98)" fill="#fff"/>
    <path id="Tracé_44" data-name="Tracé 44" d="M211.195,212.991c-.017,0-.525.371-1.525,1.087a9.019,9.019,0,0,1-1.552.929.327.327,0,0,1-.154.039.423.423,0,0,1-.34-.244c-.156-.208-.244-.318-.244-.327q-.024-1.146.144-3.2.193-2.18.2-3.145,0-.667-.051-1.253a.577.577,0,0,1,.43-.171q.489,0,.572.367.039,1.068-.09,3.2t-.105,3.2a6.108,6.108,0,0,0,.953-.547,8.8,8.8,0,0,1,.924-.586,1.69,1.69,0,0,0,.23-.024,1.425,1.425,0,0,1,.244-.027.4.4,0,0,1,.379.21A.408.408,0,0,1,211.195,212.991Z" transform="translate(-156.699 -156.201)" fill="#fff"/>
    <path id="Tracé_45" data-name="Tracé 45" d="M228.32,213.807a1.088,1.088,0,0,1,.078.364.587.587,0,0,1-.222.457q-.22.2-.3.183c-.425-.078-.694-.42-.806-1.031a10.2,10.2,0,0,0-.43-1.654l-.887.078a1.483,1.483,0,0,0-.794.313,14.216,14.216,0,0,0-.379,1.434,9.67,9.67,0,0,1-.43,1.447c-.071.156-.217.2-.442.13-.288-.1-.44-.225-.457-.391a3.177,3.177,0,0,1,.286-1.329,5.553,5.553,0,0,0,.43-1.354.347.347,0,0,0-.169-.261c-.122-.1-.183-.169-.183-.222a.227.227,0,0,1,.064-.117.532.532,0,0,1,.274-.117c.144-.029.225-.076.244-.137q.244-.65.733-2.424a21.837,21.837,0,0,1,.77-2.358.315.315,0,0,1,.325-.183.489.489,0,0,1,.325.117,1.505,1.505,0,0,1,.469.938c.054.357.1.714.144,1.068a41.381,41.381,0,0,0,1.359,5.051Zm-1.9-2.49a8.226,8.226,0,0,0-.169-1.08c-.088-.347-.171-.694-.244-1.043-.259.721-.489,1.442-.677,2.162a8.931,8.931,0,0,1,1.095-.032Z" transform="translate(-168.693 -156.142)" fill="#fff"/>
    <path id="Tracé_46" data-name="Tracé 46" d="M244.033,200.671c.078.305.061.513-.054.626a.559.559,0,0,1-.467.144.789.789,0,0,1-.489-.244.645.645,0,0,1-.244-.469.423.423,0,0,1,.129-.293.342.342,0,0,1,.274-.125,4.545,4.545,0,0,1,.489.039A.43.43,0,0,1,244.033,200.671Zm1.056,2.4c.017.244.027.511.027.782q0,.887-.183,2.671t-.183,2.688v.665a.467.467,0,0,1-.506.352c-.374-.017-.579-.178-.613-.489a8.653,8.653,0,0,1-.051-.965,23.663,23.663,0,0,1,.215-2.646,24.254,24.254,0,0,0,.215-2.632,5.412,5.412,0,0,0-.027-.665.455.455,0,0,1,.442-.244.977.977,0,0,1,.489.142.151.151,0,0,1,.078-.039c.027,0,.039.044.039.132a.489.489,0,0,0,0,.181A.086.086,0,0,0,245.089,203.071Zm1.119-2.4c.081.305.061.513-.051.626a.562.562,0,0,1-.469.144.777.777,0,0,1-.489-.244.645.645,0,0,1-.244-.469.423.423,0,0,1,.13-.293.342.342,0,0,1,.274-.125l.489.039A.418.418,0,0,1,246.208,200.671Z" transform="translate(-183.451 -151.365)" fill="#fff"/>
    <path id="Tracé_47" data-name="Tracé 47" d="M260.086,217.239a.33.33,0,0,1,.039.156.359.359,0,0,1-.169.293.584.584,0,0,1-.34.122.623.623,0,0,1-.442-.244l-.352-.4a4.1,4.1,0,0,1-.586-.733c-.173-.269-.345-.538-.508-.809l-.6.469a1.256,1.256,0,0,1-.7.244,1.42,1.42,0,0,1-.841-.305,1.769,1.769,0,0,1-.606-.711,3.621,3.621,0,0,1-.3-1.51,9.541,9.541,0,0,1,.755-3.272,3.113,3.113,0,0,1,.393-.782,1.3,1.3,0,0,1,.767-.508,4.27,4.27,0,0,0,.52-.2,1.483,1.483,0,0,1,.523-.142.55.55,0,0,1,.244.051,2.459,2.459,0,0,1,.52.352,3.326,3.326,0,0,1,.6,1.591,12.528,12.528,0,0,1,.051,1.745,2.8,2.8,0,0,1-.332,1.016,2.563,2.563,0,0,0-.32,1.016,2.215,2.215,0,0,0,.7,1.329A7.1,7.1,0,0,1,260.086,217.239Zm-2.292-3.951a3.641,3.641,0,0,0,.313-1.561,5.131,5.131,0,0,0-.34-1.864.628.628,0,0,0-.41.11c-.2.1-.393.208-.594.32a1.408,1.408,0,0,0-.65.99q-.108.652-.222,1.3a6.353,6.353,0,0,0-.169,1.341,2.443,2.443,0,0,0,.391,1.434.134.134,0,0,0,.129.064.437.437,0,0,0,.352-.244,3.13,3.13,0,0,1,.313-.325.557.557,0,0,0,.2-.391.586.586,0,0,0-.078-.274c-.3-.591-.447-.9-.457-.926a2.373,2.373,0,0,1-.2-.99c.017-.191.149-.3.391-.313a.758.758,0,0,1,.613.244,1.1,1.1,0,0,1,.227.535,1.48,1.48,0,0,0,.191.538Z" transform="translate(-192.442 -157.864)" fill="#fff"/>
    <path id="Tracé_48" data-name="Tracé 48" d="M281.181,208.695a15.176,15.176,0,0,1-.52,2.443q-.586,2.045-.679,2.475a6.145,6.145,0,0,1-1.095,2.4,1.412,1.412,0,0,1-1.173.677.971.971,0,0,1-.872-.733,7.66,7.66,0,0,1-.489-2.881,20.978,20.978,0,0,1,.183-2.443,6.85,6.85,0,0,1-.012-.809c0-.538.208-.809.626-.809a.669.669,0,0,1,.279.071c.1.049.2.1.293.152,0,.442,0,1.095-.039,1.955q-.061,1.383-.064,1.994c0,.435.012.828.037,1.185a8.226,8.226,0,0,0,.244,1.043,4.338,4.338,0,0,0,.86-1.63c.068-.225.208-.843.415-1.85a8.334,8.334,0,0,1,.562-1.8,2.5,2.5,0,0,0,.154-.691,2.649,2.649,0,0,1,.159-.7.5.5,0,0,1,.489-.313A.733.733,0,0,1,281.181,208.695Z" transform="translate(-208.819 -157.498)" fill="#fff"/>
    <path id="Tracé_49" data-name="Tracé 49" d="M301.527,209.326a13.6,13.6,0,0,1-1.42.457,13.686,13.686,0,0,0-1.422.457,6.8,6.8,0,0,0-.169,1.51,1.339,1.339,0,0,0,.489.081,4.395,4.395,0,0,0,.611-.066,4.378,4.378,0,0,1,.613-.066,1.2,1.2,0,0,1,.626.156.953.953,0,0,1,.183.34.156.156,0,0,1-.093.142,1.677,1.677,0,0,0-.181.183.305.305,0,0,1-.261.105,5.59,5.59,0,0,1-1,.078,2.944,2.944,0,0,0-.977.156,6.463,6.463,0,0,0-.244,1.525,1.4,1.4,0,0,0,.105.6,3.561,3.561,0,0,0,2.123.364.359.359,0,0,0,.22-.1.352.352,0,0,1,.2-.1q.367-.076.489.55a.506.506,0,0,1-.073.384.379.379,0,0,1-.318.188,9.722,9.722,0,0,1-2.737-.244,1.385,1.385,0,0,1-.665-.4,1.18,1.18,0,0,1-.34-.7,8.807,8.807,0,0,1,0-2.033c-.244-.166-.352-.327-.325-.489,0-.078.076-.149.2-.215s.2-.132.215-.2.051-.489.1-1.239c-.489-.1-.733-.279-.716-.547a.694.694,0,0,1,.454-.6l.836-.34a6.045,6.045,0,0,1,1.222-.442c.425-.115.85-.222,1.275-.327a.942.942,0,0,1,.156,0,1.674,1.674,0,0,1,.821.274,1.035,1.035,0,0,0,.066.2.749.749,0,0,1,.054.208A.2.2,0,0,1,301.527,209.326Z" transform="translate(-224.239 -157.545)" fill="#fff"/>
    <path id="Tracé_50" data-name="Tracé 50" d="M335.246,209.846a5.41,5.41,0,0,1-.845,1.42l-.6.6a1.688,1.688,0,0,1-.755.367,3.205,3.205,0,0,0-.051.611c0,.166.012.415.039.75s.039.582.039.733a1.877,1.877,0,0,1-.418,1.329l-.367-.2a.41.41,0,0,1-.244-.288,12.645,12.645,0,0,1-.13-1.889c0-.462.027-1.146.078-2.06s.078-1.6.078-2.072a13.629,13.629,0,0,0-.117-1.862c-.068.024-.134-.02-.2-.132s-.112-.178-.156-.2c.044-.279.117-.415.222-.415a2.114,2.114,0,0,1,.806.024,3.716,3.716,0,0,1,2.556,1.486,1.525,1.525,0,0,1,.274.887A2.213,2.213,0,0,1,335.246,209.846Zm-.845-1.012a.792.792,0,0,0-.445-.821c-.017,0-.33-.125-.938-.379.1,1.6.127,2.72.09,3.365A3.674,3.674,0,0,0,334.4,208.834Z" transform="translate(-250.568 -156.056)" fill="#fff"/>
    <path id="Tracé_51" data-name="Tracé 51" d="M354.345,216.513a3.222,3.222,0,0,1-2.175,2.06,1.466,1.466,0,0,1-.34.039,2.139,2.139,0,0,1-1.5-.809,2,2,0,0,1-.508-1.42,4.52,4.52,0,0,1,.574-2.072,3.15,3.15,0,0,1,.6-.809,1.136,1.136,0,0,1,.767-.4.579.579,0,0,1,.391.156,3.783,3.783,0,0,0,.977.418,1.466,1.466,0,0,1,.887.7,3.362,3.362,0,0,1,.457,1.5A1.5,1.5,0,0,1,354.345,216.513Zm-1.041-.806q-.09-.953-.508-1.136a.325.325,0,0,0-.117-.024.611.611,0,0,0-.391.259,1.222,1.222,0,0,1-.406.354c-.061.024-.147,0-.259-.078a.552.552,0,0,0-.222-.117.1.1,0,0,0-.066.024,1.515,1.515,0,0,0-.455,1.222,1.684,1.684,0,0,0,.259.953c.244.354.45.533.613.533a1.469,1.469,0,0,0,1.109-.716A1.805,1.805,0,0,0,353.3,215.707Z" transform="translate(-264.338 -161.031)" fill="#fff"/>
    <path id="Tracé_52" data-name="Tracé 52" d="M375.211,208.7a15.179,15.179,0,0,1-.52,2.443q-.586,2.045-.679,2.475a6.145,6.145,0,0,1-1.095,2.4,1.412,1.412,0,0,1-1.173.677.971.971,0,0,1-.872-.733,7.66,7.66,0,0,1-.489-2.881,20.964,20.964,0,0,1,.183-2.443,6.011,6.011,0,0,1-.012-.809c0-.538.208-.809.625-.809a.669.669,0,0,1,.279.071c.1.049.2.1.293.151,0,.442,0,1.095-.039,1.955-.044.921-.064,1.586-.064,1.994s0,.828.037,1.185a8.536,8.536,0,0,0,.244,1.043,4.305,4.305,0,0,0,.863-1.63c.068-.225.208-.843.415-1.85a8.489,8.489,0,0,1,.56-1.8,2.391,2.391,0,0,0,.156-.691,2.65,2.65,0,0,1,.159-.7.5.5,0,0,1,.489-.313A.733.733,0,0,1,375.211,208.7Z" transform="translate(-279.874 -157.498)" fill="#fff"/>
    <path id="Tracé_53" data-name="Tracé 53" d="M397.179,214.5a.183.183,0,0,1,.039.117c0,.2-.208.349-.626.454a14.941,14.941,0,0,1-1.71-1.642,21.424,21.424,0,0,0-1.71-1.71q-.037.34-.144,1.774a9.064,9.064,0,0,1-.232,1.71.621.621,0,0,0-.164.064.328.328,0,0,1-.227.039.712.712,0,0,1-.574-.794,3.5,3.5,0,0,1,.051-.52c.034-.244.056-.41.066-.472.034-.5.056-1.1.064-1.8v-1.42a18.949,18.949,0,0,1,.2-2.983q.127-.811,1.525-.733a1.6,1.6,0,0,1,1.222.7,2.16,2.16,0,0,1,.489,1.354,2.048,2.048,0,0,1-.454,1.222,2.9,2.9,0,0,1-.965.86q-.244.127-.244.286c0,.115.09.244.274.406l.418.337,1.432,1.3A6.506,6.506,0,0,1,397.179,214.5Zm-2.749-5.864a1.817,1.817,0,0,0,.024-.418.946.946,0,0,0-.227-.489.753.753,0,0,0-.606-.222c-.208,0-.34.066-.391.2a3.762,3.762,0,0,0-.066.733c0,.112.015.4.039.872a7.377,7.377,0,0,1,0,.875A2.778,2.778,0,0,0,394.43,208.639Z" transform="translate(-296.082 -156.105)" fill="#fff"/>
    <path id="Tracé_54" data-name="Tracé 54" d="M428.425,212.991c-.02,0-.528.371-1.527,1.087a9.008,9.008,0,0,1-1.549.929.337.337,0,0,1-.156.039.43.43,0,0,1-.34-.244c-.156-.208-.244-.318-.244-.327a31.93,31.93,0,0,1,.144-3.2q.2-2.18.2-3.145c0-.445-.02-.863-.054-1.253a.577.577,0,0,1,.43-.171c.33,0,.52.122.574.367q.042,1.068-.09,3.2t-.105,3.2a6.225,6.225,0,0,0,.95-.547,8.517,8.517,0,0,1,.926-.586,1.627,1.627,0,0,0,.227-.024,1.467,1.467,0,0,1,.244-.027.4.4,0,0,1,.379.21.415.415,0,0,1,0,.494Z" transform="translate(-320.851 -156.201)" fill="#fff"/>
    <path id="Tracé_55" data-name="Tracé 55" d="M444.733,203.261a1.918,1.918,0,0,1,.064.489,3.359,3.359,0,0,1-.271,1.158q-.391,1-.445,1.222c-.208.762-.5,1.146-.887,1.146a.568.568,0,0,1-.208-.039c-.183-.061-.244-.213-.2-.457s.23-.816.535-1.71a8.583,8.583,0,0,0,.4-1.8c.017-.191.191-.269.523-.244a1.71,1.71,0,0,1,.3.054.276.276,0,0,1,.183.181Z" transform="translate(-334.578 -153.415)" fill="#fff"/>
    <path id="Tracé_56" data-name="Tracé 56" d="M458.453,201.839a13.685,13.685,0,0,1-1.422.457,13.605,13.605,0,0,0-1.42.457,6.8,6.8,0,0,0-.169,1.51,1.314,1.314,0,0,0,.489.081,4.41,4.41,0,0,0,.613-.066,4.34,4.34,0,0,1,.613-.066,1.18,1.18,0,0,1,.623.156.911.911,0,0,1,.183.34.154.154,0,0,1-.09.142,1.578,1.578,0,0,0-.183.183.305.305,0,0,1-.261.105,5.531,5.531,0,0,1-1,.078,2.932,2.932,0,0,0-.977.156,6.486,6.486,0,0,0-.244,1.525,1.4,1.4,0,0,0,.105.6,3.57,3.57,0,0,0,2.123.364.359.359,0,0,0,.222-.1.345.345,0,0,1,.2-.1c.244-.051.4.132.489.55a.516.516,0,0,1-.071.384.384.384,0,0,1-.32.188,9.743,9.743,0,0,1-2.737-.244,1.4,1.4,0,0,1-.665-.4,1.175,1.175,0,0,1-.337-.7,8.551,8.551,0,0,1,0-2.033c-.244-.166-.352-.327-.327-.489,0-.078.076-.149.2-.215s.2-.132.215-.2.051-.489.105-1.239c-.489-.1-.733-.279-.718-.547a.674.674,0,0,1,.442-.586c.271-.112.54-.222.809-.327a17.063,17.063,0,0,1,.965-1.564q.872-1.251,1.056-1.537a.244.244,0,0,1,.22-.117.6.6,0,0,1,.418.208.538.538,0,0,1,.2.406,3.426,3.426,0,0,1-1.016,1.979l.848-.181a1.681,1.681,0,0,1,.821.274,1.038,1.038,0,0,0,.066.2.733.733,0,0,1,.051.208.193.193,0,0,1-.11.171Z" transform="translate(-342.825 -150.058)" fill="#fff"/>
    <path id="Tracé_57" data-name="Tracé 57" d="M477.917,213.5c-.086.2-.171.4-.244.6a2.226,2.226,0,0,1-.34.56c-.269.34-.54.674-.809,1a3.616,3.616,0,0,1-.872.833c-.088.105-.183.213-.286.327a.442.442,0,0,1-.313.169.506.506,0,0,1-.183-.039l-.227-.09a.325.325,0,0,1-.176-.171c-.027-.364-.039-.755-.039-1.173s.017-1.058.051-1.9.051-1.466.051-1.9q0-.848-.064-1.552s-.105-.108-.288-.3a.462.462,0,0,1-.169-.31.31.31,0,0,1,.313-.315c.112-.015.225-.029.34-.039a5.554,5.554,0,0,1,2.292,1.222,2.7,2.7,0,0,1,.508.547,3.132,3.132,0,0,1,.626,1.732A1.916,1.916,0,0,1,477.917,213.5Zm-.938-1.393c-.078-.547-.545-1.031-1.4-1.446q-.09,2.177-.051,4.613a4.133,4.133,0,0,0,1.466-2.8,2.6,2.6,0,0,0-.01-.364Z" transform="translate(-358.181 -158.083)" fill="#fff"/>
    <path id="Tracé_58" data-name="Tracé 58" d="M497.764,208.694a15.23,15.23,0,0,1-.523,2.443q-.586,2.045-.677,2.475a6.18,6.18,0,0,1-1.095,2.4,1.416,1.416,0,0,1-1.173.677.976.976,0,0,1-.875-.733,7.662,7.662,0,0,1-.489-2.881,20.964,20.964,0,0,1,.183-2.443,5.454,5.454,0,0,1-.015-.809c0-.538.21-.809.626-.809a.672.672,0,0,1,.281.071c.1.049.2.1.293.151q0,.665-.039,1.955-.066,1.383-.066,1.994c0,.435.015.828.039,1.185a7.666,7.666,0,0,0,.244,1.043,4.271,4.271,0,0,0,.86-1.63c.071-.225.21-.843.418-1.85a8.351,8.351,0,0,1,.56-1.8,2.479,2.479,0,0,0,.156-.691,2.671,2.671,0,0,1,.156-.7.506.506,0,0,1,.489-.313A.733.733,0,0,1,497.764,208.694Z" transform="translate(-372.48 -157.497)" fill="#fff"/>
    <path id="Tracé_59" data-name="Tracé 59" d="M517.579,204.858c0,.244-.159.384-.472.445a1.549,1.549,0,0,0-.755.271,5.528,5.528,0,0,0-1.466,3.975,6.4,6.4,0,0,0,.364,2.165c.2.555.342.921.43,1.095a2.16,2.16,0,0,0,.794.911c.132.061.261.117.391.169a.364.364,0,0,1,.21.327.589.589,0,0,1-.137.376.288.288,0,0,1-.293.132,2.866,2.866,0,0,1-.523-.171A4.554,4.554,0,0,1,514.769,213c-.122-.2-.244-.408-.371-.621a2.934,2.934,0,0,1-.281-.606,16.538,16.538,0,0,1-.222-1.681,7.917,7.917,0,0,1-.051-.887,5.94,5.94,0,0,1,1.341-3.922,2.178,2.178,0,0,1,1.63-.938,1.087,1.087,0,0,1,.665.222A.34.34,0,0,1,517.579,204.858Z" transform="translate(-388.28 -154.419)" fill="#fff"/>
    <path id="Tracé_60" data-name="Tracé 60" d="M532.178,213.747a1.038,1.038,0,0,1,.081.364.594.594,0,0,1-.222.457q-.222.2-.3.183c-.425-.078-.694-.42-.809-1.031a9.712,9.712,0,0,0-.43-1.654l-.885.078a1.483,1.483,0,0,0-.794.313,14.214,14.214,0,0,0-.379,1.434,9.676,9.676,0,0,1-.43,1.447c-.071.156-.218.2-.445.13-.286-.1-.437-.225-.454-.391a3.176,3.176,0,0,1,.286-1.329,5.552,5.552,0,0,0,.43-1.354.355.355,0,0,0-.169-.261c-.12-.1-.183-.169-.183-.222a.227.227,0,0,1,.059-.137.522.522,0,0,1,.274-.117c.144-.029.225-.076.244-.137q.244-.65.733-2.424a22.488,22.488,0,0,1,.767-2.358.32.32,0,0,1,.327-.183.5.5,0,0,1,.325.117,1.505,1.505,0,0,1,.469.938c.051.357.1.713.144,1.068a40.988,40.988,0,0,0,1.361,5.07Zm-1.9-2.49a8.267,8.267,0,0,0-.171-1.08c-.086-.347-.169-.694-.244-1.043q-.393,1.08-.677,2.162a8.9,8.9,0,0,1,1.092-.032Z" transform="translate(-398.307 -156.082)" fill="#fff"/>
    <path id="Tracé_61" data-name="Tracé 61" d="M552.855,204.01a.658.658,0,0,1-.445.547q-.845.208-2.932.55-.261,3.245-.261,5.407,0,.821.027,1.615a1.124,1.124,0,0,1-.027.379.244.244,0,0,1-.259.2.809.809,0,0,1-.625-.32,1.18,1.18,0,0,1-.274-.684c-.017-.32-.027-.66-.027-1.016,0-.572.039-1.481.117-2.722.078-1.192.112-2.1.1-2.724a4.8,4.8,0,0,0-.977.066,8.291,8.291,0,0,1-.99.1,1.568,1.568,0,0,1-1.043-.342c-.1-.227-.154-.345-.154-.354a.3.3,0,0,1,.09-.2,8.666,8.666,0,0,1,1.71-.264,4.708,4.708,0,0,0,1.693-.42,3.252,3.252,0,0,0,1.043.156,4.311,4.311,0,0,0,1.119-.144,6.481,6.481,0,0,0,.8-.181,2.2,2.2,0,0,1,.782-.081c.156,0,.22.066.2.2C552.738,203.775,552.855,203.856,552.855,204.01Z" transform="translate(-411.894 -153.832)" fill="#fff"/>
    <path id="Tracé_62" data-name="Tracé 62" d="M571.33,210.109c.017.244.027.511.027.782q0,.887-.183,2.671c-.122,1.19-.181,2.089-.181,2.688v.665a.469.469,0,0,1-.508.352c-.374-.017-.579-.178-.613-.489a8.641,8.641,0,0,1-.051-.965,23.674,23.674,0,0,1,.215-2.646,24.234,24.234,0,0,0,.215-2.632,5.421,5.421,0,0,0-.027-.665.459.459,0,0,1,.445-.244.978.978,0,0,1,.489.142.159.159,0,0,1,.078-.039c.027,0,.039.044.039.132a.65.65,0,0,0,0,.181A.1.1,0,0,0,571.33,210.109Z" transform="translate(-430.581 -158.404)" fill="#fff"/>
    <path id="Tracé_63" data-name="Tracé 63" d="M583.407,216.513a3.235,3.235,0,0,1-2.177,2.06,1.465,1.465,0,0,1-.337.039,2.147,2.147,0,0,1-1.5-.809,2,2,0,0,1-.508-1.42,4.521,4.521,0,0,1,.574-2.072,3.15,3.15,0,0,1,.6-.809,1.136,1.136,0,0,1,.77-.4.586.586,0,0,1,.391.156,3.7,3.7,0,0,0,.977.418,1.466,1.466,0,0,1,.885.7,3.362,3.362,0,0,1,.457,1.5A1.543,1.543,0,0,1,583.407,216.513Zm-1.043-.806q-.09-.953-.508-1.136a.325.325,0,0,0-.117-.024.611.611,0,0,0-.391.259,1.253,1.253,0,0,1-.4.354c-.061.024-.149,0-.261-.078a.537.537,0,0,0-.222-.117.086.086,0,0,0-.064.024,1.508,1.508,0,0,0-.457,1.222,1.667,1.667,0,0,0,.261.953c.244.354.447.533.611.533a1.469,1.469,0,0,0,1.109-.716A1.806,1.806,0,0,0,582.364,215.707Z" transform="translate(-437.429 -161.031)" fill="#fff"/>
    <path id="Tracé_64" data-name="Tracé 64" d="M606.078,205.38q-.181,1.747-.349,3.506a33.6,33.6,0,0,0-.222,3.479c0,.3,0,.6.027.9a.454.454,0,0,1-.151.364.516.516,0,0,1-.371.156c-.269,0-.489-.183-.677-.547a45.234,45.234,0,0,1-2.072-5.109c-.017-.051-.039-.076-.066-.076s-.1.059-.117.181a33.52,33.52,0,0,0-.22,3.924c0,.66.015,1.332.051,2.018a.542.542,0,0,1-.222.523.279.279,0,0,1-.2.09.535.535,0,0,1-.244-.078l-.244-.117c-.115-.034-.183-.139-.21-.313a3.412,3.412,0,0,1-.024-.43q-.042-.733-.039-1.525,0-1.381.156-3.453.244-3.154.274-3.494c0-.191.169-.286.489-.286.149-.017.364.09.652.325A20.1,20.1,0,0,1,603.329,208a17.875,17.875,0,0,0,1.068,2.592q.2-1.73.613-5.239c.027-.173.152-.259.379-.259a1.114,1.114,0,0,1,.274.039c.139.034.22.056.244.066A.267.267,0,0,1,606.078,205.38Z" transform="translate(-453.938 -154.98)" fill="#fff"/>
    <path id="Tracé_65" data-name="Tracé 65" d="M627.734,229.94c-.244,1.222-.391,1.872-.418,1.967a9.455,9.455,0,0,1-.626,1.877.315.315,0,0,1-.313.156,1.175,1.175,0,0,1-.5-.13.447.447,0,0,1-.266-.43,1.533,1.533,0,0,1,.105-.489c.061-.147.117-.293.169-.442q.337-1.222.418-1.5a12.027,12.027,0,0,0,.274-1.539.405.405,0,0,1,.244-.391.611.611,0,0,1,.244-.051.977.977,0,0,1,.6.21Q627.864,229.315,627.734,229.94Z" transform="translate(-472.738 -173.023)" fill="#fff"/>
    <path id="Tracé_66" data-name="Tracé 66" d="M656.193,212.991c-.017,0-.525.371-1.525,1.087a9.024,9.024,0,0,1-1.552.928.337.337,0,0,1-.156.039.423.423,0,0,1-.337-.244c-.156-.208-.244-.318-.244-.327a31.977,31.977,0,0,1,.144-3.2q.2-2.18.2-3.145,0-.667-.051-1.253a.572.572,0,0,1,.43-.171q.489,0,.572.367.042,1.068-.09,3.2t-.105,3.2a6,6,0,0,0,.951-.547,9.03,9.03,0,0,1,.926-.586,1.692,1.692,0,0,0,.23-.024,1.422,1.422,0,0,1,.244-.027.4.4,0,0,1,.379.21A.408.408,0,0,1,656.193,212.991Z" transform="translate(-492.964 -156.201)" fill="#fff"/>
    <path id="Tracé_67" data-name="Tracé 67" d="M673.327,213.807a1.028,1.028,0,0,1,.078.364.591.591,0,0,1-.22.457q-.225.2-.3.183c-.425-.078-.7-.42-.809-1.031a9.948,9.948,0,0,0-.43-1.654l-.885.078a1.493,1.493,0,0,0-.8.313c-.1.271-.22.748-.379,1.434a9.718,9.718,0,0,1-.428,1.447c-.071.156-.217.2-.445.13-.286-.1-.437-.225-.455-.391a3.177,3.177,0,0,1,.279-1.329,5.785,5.785,0,0,0,.43-1.354.352.352,0,0,0-.171-.261c-.122-.1-.181-.169-.181-.222a.228.228,0,0,1,.068-.117.523.523,0,0,1,.274-.117c.144-.029.222-.076.244-.137q.244-.65.745-2.424a22.488,22.488,0,0,1,.767-2.358.318.318,0,0,1,.325-.183.5.5,0,0,1,.327.117,1.53,1.53,0,0,1,.469.938c.051.357.1.713.144,1.068A40.988,40.988,0,0,0,673.327,213.807Zm-1.9-2.49a7.834,7.834,0,0,0-.169-1.08c-.086-.347-.169-.694-.244-1.043q-.393,1.08-.677,2.162a8.877,8.877,0,0,1,1.082-.032Z" transform="translate(-504.968 -156.143)" fill="#fff"/>
    <path id="Tracé_68" data-name="Tracé 68" d="M710.29,203.241a.76.76,0,0,1-.164.474.672.672,0,0,1-.423.266.432.432,0,0,1-.286-.059.589.589,0,0,0-.288-.071,4.935,4.935,0,0,0-1.407.406c-.7.3-1.163.472-1.381.533q-.051.821-.051,1.669t.051,1.693a.939.939,0,0,0,.222.027,3.894,3.894,0,0,0,.938-.21,2.733,2.733,0,0,1,.977-.142c.191.017.279.09.259.22a1.034,1.034,0,0,1-.65.782c-.357.115-.714.244-1.068.354-.139.017-.367.061-.679.13-.017.173-.027.369-.027.586s0,.525.034.951.032.733.032.953a3.756,3.756,0,0,1-.352,1.771.244.244,0,0,1-.244.144.513.513,0,0,1-.325-.144.7.7,0,0,1-.222-.313,3.094,3.094,0,0,1-.13-.938c0-.122.029-.542.09-1.266a4.842,4.842,0,0,0-.024-1.263.393.393,0,0,0-.261-.274.45.45,0,0,1-.352-.731.271.271,0,0,0,.266-.1.3.3,0,0,1,.215-.13.378.378,0,0,1,.105,0,7.122,7.122,0,0,0,.13-1.434q0-.274-.1-2.018a1.112,1.112,0,0,1-.489-.308.694.694,0,0,1-.244-.489c0-.215.156-.347.469-.391a16.765,16.765,0,0,0,2.358-.65,8.634,8.634,0,0,1,2.424-.508.708.708,0,0,1,.41.122A.391.391,0,0,1,710.29,203.241Z" transform="translate(-532.308 -153.217)" fill="#fff"/>
    <path id="Tracé_69" data-name="Tracé 69" d="M729.485,216.513a3.222,3.222,0,0,1-2.175,2.06,1.466,1.466,0,0,1-.34.039,2.139,2.139,0,0,1-1.5-.809,2,2,0,0,1-.508-1.42,4.52,4.52,0,0,1,.574-2.072,3.15,3.15,0,0,1,.6-.809,1.136,1.136,0,0,1,.77-.4.587.587,0,0,1,.391.156,3.709,3.709,0,0,0,.977.418,1.466,1.466,0,0,1,.887.7,3.362,3.362,0,0,1,.457,1.5A1.505,1.505,0,0,1,729.485,216.513Zm-1.041-.806q-.09-.953-.508-1.136a.325.325,0,0,0-.117-.024.611.611,0,0,0-.391.259,1.221,1.221,0,0,1-.406.354c-.059.024-.147,0-.259-.078a.552.552,0,0,0-.222-.117.1.1,0,0,0-.066.024,1.515,1.515,0,0,0-.454,1.222,1.666,1.666,0,0,0,.261.953c.244.354.447.533.611.533A1.469,1.469,0,0,0,728,216.98a1.806,1.806,0,0,0,.442-1.273Z" transform="translate(-547.816 -161.031)" fill="#fff"/>
    <path id="Tracé_70" data-name="Tracé 70" d="M751.271,214.5a.183.183,0,0,1,.039.117c0,.2-.208.349-.625.454a14.941,14.941,0,0,1-1.71-1.642,21.993,21.993,0,0,0-1.71-1.71q-.037.34-.144,1.774a9.062,9.062,0,0,1-.244,1.71.591.591,0,0,0-.164.064.328.328,0,0,1-.227.039.712.712,0,0,1-.574-.794,3.5,3.5,0,0,1,.051-.52c.034-.244.056-.41.066-.472.034-.5.056-1.1.064-1.8v-1.42a18.941,18.941,0,0,1,.2-2.983q.13-.811,1.525-.733a1.6,1.6,0,0,1,1.222.7,2.161,2.161,0,0,1,.489,1.354,2.048,2.048,0,0,1-.455,1.222,2.9,2.9,0,0,1-.977.86q-.244.127-.244.286c0,.115.09.244.274.406l.415.337,1.434,1.3A6.571,6.571,0,0,1,751.271,214.5Zm-2.749-5.864a1.815,1.815,0,0,0,.024-.418.945.945,0,0,0-.227-.489.753.753,0,0,0-.606-.222c-.208,0-.34.066-.391.2a3.757,3.757,0,0,0-.066.733c0,.112.015.4.039.872a7.364,7.364,0,0,1,0,.875A2.789,2.789,0,0,0,748.522,208.639Z" transform="translate(-563.645 -156.105)" fill="#fff"/>
    <path id="Tracé_71" data-name="Tracé 71" d="M770.482,215.561c.034.173-.093.269-.379.286a.84.84,0,0,1-.586-.244,1.5,1.5,0,0,1-.391-.718,5.478,5.478,0,0,1-.156-1.288,9.777,9.777,0,0,0-.09-1.29q-.169.586-.562,1.745a7.094,7.094,0,0,1-.286.733c-.139.269-.313.391-.52.364a1.466,1.466,0,0,1-.977-.7,4.454,4.454,0,0,1-.418-1.161,6.679,6.679,0,0,0-.352-1.17,18.893,18.893,0,0,1-1.2,4.066c-.061.13-.244.12-.547-.027a.569.569,0,0,1-.379-.52,4.5,4.5,0,0,1,.274-.836q.117-.313.911-3.01a24.563,24.563,0,0,0,.574-3.3,1.5,1.5,0,0,0,.129-.274.244.244,0,0,1,.244-.183.877.877,0,0,1,.613.169,9.363,9.363,0,0,0,.125,1.222,9.776,9.776,0,0,1,.122,1.271c.078.489.154.977.222,1.466a3.325,3.325,0,0,0,.521,1.368,33.945,33.945,0,0,0,1.591-5.5c.034-.137.164-.208.391-.208.323,0,.5.105.547.313a5.7,5.7,0,0,1,.09,1.08c0,.132,0,.418-.024.863q-.015.53,0,.872A28.92,28.92,0,0,0,770.482,215.561Z" transform="translate(-577.043 -157.041)" fill="#fff"/>
    <path id="Tracé_72" data-name="Tracé 72" d="M798.09,213.746a1.087,1.087,0,0,1,.078.364.587.587,0,0,1-.222.457q-.22.2-.3.183c-.425-.078-.694-.42-.806-1.031a10.2,10.2,0,0,0-.43-1.654l-.887.078a1.483,1.483,0,0,0-.794.313,14.214,14.214,0,0,0-.379,1.434,9.669,9.669,0,0,1-.43,1.447c-.068.156-.218.2-.442.13-.288-.1-.44-.225-.457-.391a3.159,3.159,0,0,1,.288-1.329,5.62,5.62,0,0,0,.428-1.354.347.347,0,0,0-.169-.261c-.122-.1-.183-.169-.183-.222a.228.228,0,0,1,.059-.137.542.542,0,0,1,.276-.117c.142-.029.222-.076.244-.137q.244-.65.733-2.424a21.834,21.834,0,0,1,.77-2.358.315.315,0,0,1,.325-.183.508.508,0,0,1,.327.117,1.515,1.515,0,0,1,.467.938c.054.357.1.713.144,1.068A41.384,41.384,0,0,0,798.09,213.746Zm-1.9-2.483a8.222,8.222,0,0,0-.169-1.08c-.088-.347-.171-.694-.244-1.043-.259.721-.489,1.442-.677,2.162A8.926,8.926,0,0,1,796.192,211.264Z" transform="translate(-599.244 -156.082)" fill="#fff"/>
    <path id="Tracé_73" data-name="Tracé 73" d="M818.768,204.009a.661.661,0,0,1-.445.547q-.848.208-2.944.55-.259,3.245-.261,5.407,0,.821.027,1.615a1.19,1.19,0,0,1-.027.379.244.244,0,0,1-.261.2.814.814,0,0,1-.625-.32,1.175,1.175,0,0,1-.271-.684c-.02-.32-.027-.66-.027-1.016,0-.572.039-1.481.117-2.722.078-1.192.112-2.1.105-2.724a4.806,4.806,0,0,0-.977.066,8.293,8.293,0,0,1-.977.1,1.564,1.564,0,0,1-1.043-.342c-.1-.227-.156-.345-.156-.354a.305.305,0,0,1,.093-.2,8.629,8.629,0,0,1,1.71-.264,4.711,4.711,0,0,0,1.7-.42,3.247,3.247,0,0,0,1.041.156,4.328,4.328,0,0,0,1.122-.144,6.381,6.381,0,0,0,.794-.181,2.2,2.2,0,0,1,.784-.081c.156,0,.22.066.2.2C818.648,203.775,818.768,203.856,818.768,204.009Z" transform="translate(-612.83 -153.831)" fill="#fff"/>
    <path id="Tracé_74" data-name="Tracé 74" d="M837.3,210.109c.017.244.027.511.027.782q0,.887-.183,2.671c-.122,1.19-.181,2.089-.181,2.688,0,.225,0,.447.012.665a.469.469,0,0,1-.508.352c-.374-.017-.579-.178-.613-.489a8.656,8.656,0,0,1-.051-.965,23.659,23.659,0,0,1,.215-2.646,24.25,24.25,0,0,0,.215-2.632,5.421,5.421,0,0,0-.027-.665.457.457,0,0,1,.442-.244.978.978,0,0,1,.489.142.151.151,0,0,1,.078-.039c.027,0,.039.044.039.132a.655.655,0,0,0,0,.181A.1.1,0,0,0,837.3,210.109Z" transform="translate(-631.571 -158.404)" fill="#fff"/>
    <path id="Tracé_75" data-name="Tracé 75" d="M849.275,216.513a3.235,3.235,0,0,1-2.177,2.06,1.444,1.444,0,0,1-.337.039,2.133,2.133,0,0,1-1.5-.809,2.008,2.008,0,0,1-.506-1.42,4.548,4.548,0,0,1,.572-2.072,3.157,3.157,0,0,1,.6-.809,1.136,1.136,0,0,1,.767-.4.586.586,0,0,1,.391.156,3.743,3.743,0,0,0,.977.418,1.466,1.466,0,0,1,.887.7,3.4,3.4,0,0,1,.457,1.5,1.506,1.506,0,0,1-.132.638Zm-1.043-.806q-.09-.953-.508-1.136a.313.313,0,0,0-.115-.024.611.611,0,0,0-.391.259,1.281,1.281,0,0,1-.406.354c-.061.024-.149,0-.259-.078a.567.567,0,0,0-.222-.117.088.088,0,0,0-.066.024,1.515,1.515,0,0,0-.457,1.222,1.685,1.685,0,0,0,.261.953c.244.354.447.533.613.533a1.469,1.469,0,0,0,1.107-.716,1.793,1.793,0,0,0,.445-1.273Z" transform="translate(-638.336 -161.031)" fill="#fff"/>
    <path id="Tracé_76" data-name="Tracé 76" d="M871.949,205.38q-.183,1.747-.352,3.506a34.3,34.3,0,0,0-.222,3.479c0,.3,0,.6.027.9a.447.447,0,0,1-.152.364.516.516,0,0,1-.371.156c-.269,0-.489-.183-.677-.547a46.182,46.182,0,0,1-2.072-5.109c-.017-.051-.039-.076-.066-.076s-.1.059-.115.181a32.971,32.971,0,0,0-.222,3.924q0,.99.051,2.018a.538.538,0,0,1-.22.523.284.284,0,0,1-.2.09.525.525,0,0,1-.244-.078l-.244-.117c-.112-.034-.181-.139-.208-.313a4,4,0,0,1-.027-.43q-.039-.733-.039-1.525,0-1.381.156-3.453.244-3.154.274-3.494c0-.191.169-.286.489-.286.147-.017.364.09.65.325A20.4,20.4,0,0,1,869.2,208a17.592,17.592,0,0,0,1.068,2.592q.193-1.73.611-5.239c.027-.173.154-.259.379-.259a1.1,1.1,0,0,1,.274.039q.21.051.244.066A.276.276,0,0,1,871.949,205.38Z" transform="translate(-654.845 -154.98)" fill="#fff"/>
    <path id="Tracé_77" data-name="Tracé 77" d="M893.632,229.94q-.376,1.825-.418,1.967a9.3,9.3,0,0,1-.626,1.877.313.313,0,0,1-.313.156,1.166,1.166,0,0,1-.489-.13.45.45,0,0,1-.269-.43,1.606,1.606,0,0,1,.105-.489c.061-.147.117-.293.171-.442q.337-1.222.415-1.5a11.614,11.614,0,0,0,.274-1.539.406.406,0,0,1,.244-.391.623.623,0,0,1,.244-.051.96.96,0,0,1,.6.21Q893.762,229.315,893.632,229.94Z" transform="translate(-673.675 -173.023)" fill="#fff"/>
    <path id="Tracé_78" data-name="Tracé 78" d="M186.555,266.328q-.024.015-1.525,1.087a8.9,8.9,0,0,1-1.552.931.369.369,0,0,1-.156.039.435.435,0,0,1-.34-.244c-.154-.21-.244-.318-.244-.327q-.027-1.146.144-3.2c.13-1.451.2-2.5.2-3.145,0-.445-.017-.86-.051-1.253a.579.579,0,0,1,.43-.169c.33,0,.52.122.572.364q.039,1.068-.09,3.2t-.105,3.2a6.541,6.541,0,0,0,.95-.547,9.017,9.017,0,0,1,.926-.586,1.826,1.826,0,0,0,.23-.027,1.747,1.747,0,0,1,.244-.027.4.4,0,0,1,.379.21A.408.408,0,0,1,186.555,266.328Z" transform="translate(-138.078 -196.507)" fill="#fff"/>
    <path id="Tracé_79" data-name="Tracé 79" d="M203.7,267.117a1.019,1.019,0,0,1,.078.364.594.594,0,0,1-.22.457c-.149.13-.244.191-.3.181-.425-.076-.7-.42-.809-1.029a9.952,9.952,0,0,0-.43-1.654l-.885.078a1.466,1.466,0,0,0-.8.313c-.1.269-.22.748-.379,1.432a9.623,9.623,0,0,1-.428,1.447c-.071.156-.22.2-.445.132-.286-.1-.437-.227-.457-.391a3.223,3.223,0,0,1,.288-1.329,5.829,5.829,0,0,0,.43-1.356.356.356,0,0,0-.171-.261c-.122-.1-.181-.169-.181-.22a.215.215,0,0,1,.059-.137.489.489,0,0,1,.274-.117c.144-.032.222-.076.244-.137q.244-.652.745-2.424a22.379,22.379,0,0,1,.767-2.36.32.32,0,0,1,.325-.181.5.5,0,0,1,.327.117,1.522,1.522,0,0,1,.469.938c.051.354.1.711.144,1.068a41.119,41.119,0,0,0,1.349,5.07Zm-1.9-2.49a7.923,7.923,0,0,0-.169-1.082c-.088-.347-.169-.694-.244-1.041q-.391,1.08-.677,2.162A8.346,8.346,0,0,1,201.8,264.627Z" transform="translate(-150.089 -196.412)" fill="#fff"/>
    <path id="Tracé_80" data-name="Tracé 80" d="M239.038,263.187a5.375,5.375,0,0,1-.848,1.422l-.6.6a1.676,1.676,0,0,1-.757.364,3.213,3.213,0,0,0-.051.613,6.041,6.041,0,0,0,.039.75,5.9,5.9,0,0,1,.039.733,1.874,1.874,0,0,1-.418,1.329l-.364-.2a.408.408,0,0,1-.244-.286,12.344,12.344,0,0,1-.132-1.891q0-.689.078-2.057c.054-.914.078-1.6.078-2.072a13.636,13.636,0,0,0-.117-1.864c-.068.027-.134-.017-.2-.129s-.112-.178-.156-.2c.044-.279.117-.418.222-.418a2.143,2.143,0,0,1,.809.027,3.684,3.684,0,0,1,2.553,1.486,1.512,1.512,0,0,1,.274.884A2.24,2.24,0,0,1,239.038,263.187Zm-.848-1a.789.789,0,0,0-.452-.823c-.015,0-.33-.127-.936-.379q.144,2.4.09,3.362A3.7,3.7,0,0,0,238.19,262.186Z" transform="translate(-177.867 -196.367)" fill="#fff"/>
    <path id="Tracé_81" data-name="Tracé 81" d="M259.121,267.805a.183.183,0,0,1,.039.117c0,.2-.208.352-.626.457a15.6,15.6,0,0,1-1.71-1.642,21.431,21.431,0,0,0-1.71-1.71q-.039.337-.144,1.771a9.206,9.206,0,0,1-.244,1.71.679.679,0,0,0-.164.066.342.342,0,0,1-.227.039.715.715,0,0,1-.574-.8,3.528,3.528,0,0,1,.051-.52c.037-.244.056-.408.066-.469q.051-.755.066-1.8v-1.42a18.993,18.993,0,0,1,.2-2.986q.13-.806,1.525-.733a1.6,1.6,0,0,1,1.222.7,2.174,2.174,0,0,1,.489,1.356,2.05,2.05,0,0,1-.457,1.222,2.846,2.846,0,0,1-.965.86c-.156.088-.244.183-.244.288s.09.244.274.4l.418.34,1.432,1.3A6.617,6.617,0,0,1,259.121,267.805Zm-2.749-5.852a1.792,1.792,0,0,0,.024-.415.943.943,0,0,0-.227-.489.758.758,0,0,0-.606-.222c-.208,0-.34.066-.391.2a3.79,3.79,0,0,0-.064.733c0,.115.012.406.039.875a7.336,7.336,0,0,1,0,.872A2.8,2.8,0,0,0,256.372,261.953Z" transform="translate(-191.748 -196.384)" fill="#fff"/>
    <path id="Tracé_82" data-name="Tracé 82" d="M276.795,255.179a14.01,14.01,0,0,1-1.42.457,13.41,13.41,0,0,0-1.42.457,6.58,6.58,0,0,0-.171,1.51,1.4,1.4,0,0,0,.489.078,4.4,4.4,0,0,0,.611-.066,4.715,4.715,0,0,1,.613-.064,1.183,1.183,0,0,1,.626.156.91.91,0,0,1,.183.337.161.161,0,0,1-.093.144,1.681,1.681,0,0,0-.181.183.3.3,0,0,1-.261.1,5.375,5.375,0,0,1-1,.078,2.944,2.944,0,0,0-.977.156,6.608,6.608,0,0,0-.244,1.525,1.412,1.412,0,0,0,.105.6,3.585,3.585,0,0,0,2.123.364.359.359,0,0,0,.222-.1.33.33,0,0,1,.2-.1c.244-.051.4.129.489.547a.513.513,0,0,1-.071.384.393.393,0,0,1-.32.191,9.724,9.724,0,0,1-2.737-.244,1.385,1.385,0,0,1-.665-.4,1.165,1.165,0,0,1-.34-.7,8.808,8.808,0,0,1,0-2.033c-.244-.166-.352-.325-.325-.489,0-.078.076-.151.2-.215a.379.379,0,0,0,.215-.2c.02-.068.051-.489.1-1.239-.489-.1-.733-.276-.716-.547a.672.672,0,0,1,.442-.586c.269-.112.54-.22.809-.325a15.936,15.936,0,0,1,.977-1.564q.872-1.251,1.056-1.537a.244.244,0,0,1,.22-.117.6.6,0,0,1,.418.208.533.533,0,0,1,.2.4,3.427,3.427,0,0,1-1.016,1.982l.845-.183a1.71,1.71,0,0,1,.823.274,1.792,1.792,0,0,0,.064.2.733.733,0,0,1,.054.21A.2.2,0,0,1,276.795,255.179Z" transform="translate(-205.551 -190.364)" fill="#fff"/>
    <path id="Tracé_83" data-name="Tracé 83" d="M298.013,259.21a31.166,31.166,0,0,0-1.447,3.558,22.225,22.225,0,0,0-.652,2.541,17.635,17.635,0,0,1-.7,2.568.354.354,0,0,1-.274.132.912.912,0,0,1-.469-.2,29.683,29.683,0,0,1-1.185-3.988A22.968,22.968,0,0,0,292,259.8c.112-.215.208-.325.288-.325a.379.379,0,0,1,.208-.066,1.679,1.679,0,0,1,.733.391,19.639,19.639,0,0,1,.9,2.619q.337,1.346.689,2.673.489-1.591.965-3.194a27.048,27.048,0,0,1,1.173-3.1.547.547,0,0,1,.677-.222.3.3,0,0,1,.132.1.264.264,0,0,0,.2.09c.078,0,.115.068.115.191A.562.562,0,0,1,298.013,259.21Z" transform="translate(-220.644 -195.36)" fill="#fff"/>
    <path id="Tracé_84" data-name="Tracé 84" d="M321.435,262.63a14.007,14.007,0,0,1-1.42.457,13.417,13.417,0,0,0-1.42.457,6.58,6.58,0,0,0-.171,1.51,1.4,1.4,0,0,0,.489.078,4.4,4.4,0,0,0,.611-.066,4.715,4.715,0,0,1,.613-.064,1.183,1.183,0,0,1,.626.156.909.909,0,0,1,.183.337.161.161,0,0,1-.093.144,1.683,1.683,0,0,0-.181.183.3.3,0,0,1-.261.1,5.373,5.373,0,0,1-1,.078,2.945,2.945,0,0,0-.977.156,6.61,6.61,0,0,0-.244,1.525,1.412,1.412,0,0,0,.105.6,3.584,3.584,0,0,0,2.123.364.359.359,0,0,0,.222-.1.33.33,0,0,1,.2-.1c.244-.051.4.13.489.547a.513.513,0,0,1-.071.384.393.393,0,0,1-.32.191,9.715,9.715,0,0,1-2.737-.244,1.385,1.385,0,0,1-.665-.4,1.165,1.165,0,0,1-.34-.7,8.808,8.808,0,0,1,0-2.033c-.244-.166-.352-.325-.325-.489,0-.078.076-.151.2-.215a.379.379,0,0,0,.215-.2c.02-.068.051-.489.1-1.239-.489-.1-.733-.276-.716-.547a.7.7,0,0,1,.454-.6l.836-.34a6.2,6.2,0,0,1,1.222-.442c.425-.112.85-.222,1.278-.325a.7.7,0,0,1,.154-.015,1.691,1.691,0,0,1,.821.274.98.98,0,0,0,.066.2.732.732,0,0,1,.054.21A.2.2,0,0,1,321.435,262.63Z" transform="translate(-239.284 -197.816)" fill="#fff"/>
    <path id="Tracé_85" data-name="Tracé 85" d="M343.691,258.675q-.183,1.745-.352,3.5a33.653,33.653,0,0,0-.222,3.479c0,.305,0,.6.027.9a.462.462,0,0,1-.151.366.525.525,0,0,1-.371.156c-.269,0-.489-.183-.677-.547a46.1,46.1,0,0,1-2.072-5.109c-.017-.051-.039-.078-.066-.078s-.1.061-.117.183a33.451,33.451,0,0,0-.22,3.91q0,.99.051,2.021a.537.537,0,0,1-.222.52.274.274,0,0,1-.2.093.513.513,0,0,1-.244-.081l-.244-.115c-.112-.037-.183-.139-.208-.315,0-.139-.02-.281-.027-.43q-.039-.733-.039-1.522,0-1.383.156-3.455.244-3.152.274-3.492c0-.191.169-.288.489-.288.149-.017.367.093.652.327a19.956,19.956,0,0,1,1.034,2.592,18.1,18.1,0,0,0,1.068,2.592q.2-1.735.613-5.239c.027-.173.154-.261.379-.261a1.244,1.244,0,0,1,.274.039c.139.034.222.059.244.066A.274.274,0,0,1,343.691,258.675Z" transform="translate(-255.662 -195.241)" fill="#fff"/>
    <path id="Tracé_86" data-name="Tracé 86" d="M366.04,257.348a.659.659,0,0,1-.442.547q-.845.208-2.944.547-.261,3.242-.261,5.407c0,.547,0,1.087.027,1.618a1.173,1.173,0,0,1-.027.376.244.244,0,0,1-.261.2.811.811,0,0,1-.625-.318,1.222,1.222,0,0,1-.274-.684c-.017-.323-.024-.662-.024-1.016,0-.574.037-1.483.115-2.724q.12-1.786.105-2.724a4.779,4.779,0,0,0-.977.066,8.558,8.558,0,0,1-.99.105,1.564,1.564,0,0,1-1.043-.342c-.1-.227-.156-.347-.156-.354a.318.318,0,0,1,.093-.2,8.845,8.845,0,0,1,1.71-.261,4.772,4.772,0,0,0,1.7-.423,3.178,3.178,0,0,0,1.041.156,4.327,4.327,0,0,0,1.122-.142,7.146,7.146,0,0,0,.794-.183,2.18,2.18,0,0,1,.782-.078c.156,0,.222.066.2.2Q366.04,257.113,366.04,257.348Z" transform="translate(-270.714 -194.136)" fill="#fff"/>
    <path id="Tracé_87" data-name="Tracé 87" d="M384.61,263.447c.017.244.027.513.027.782q0,.887-.183,2.671c-.122,1.19-.183,2.092-.183,2.688,0,.227,0,.45.012.665a.462.462,0,0,1-.506.352c-.376-.017-.579-.176-.613-.489a8.643,8.643,0,0,1-.054-.965,24.289,24.289,0,0,1,.215-2.644,23.624,23.624,0,0,0,.215-2.634,5.916,5.916,0,0,0-.024-.662.457.457,0,0,1,.442-.244.978.978,0,0,1,.489.144.152.152,0,0,1,.078-.039c.027,0,.039.044.039.13a.5.5,0,0,0,0,.183A.085.085,0,0,0,384.61,263.447Z" transform="translate(-289.492 -198.711)" fill="#fff"/>
    <path id="Tracé_88" data-name="Tracé 88" d="M396.647,269.846a3.234,3.234,0,0,1-2.177,2.057,1.466,1.466,0,0,1-.34.042,2.133,2.133,0,0,1-1.5-.809,2,2,0,0,1-.508-1.42,4.53,4.53,0,0,1,.574-2.074,3.093,3.093,0,0,1,.6-.806,1.141,1.141,0,0,1,.77-.406.6.6,0,0,1,.391.156,3.537,3.537,0,0,0,.977.418,1.466,1.466,0,0,1,.885.7,3.355,3.355,0,0,1,.457,1.5A1.551,1.551,0,0,1,396.647,269.846Zm-1.043-.809q-.09-.951-.508-1.134a.325.325,0,0,0-.117-.024.6.6,0,0,0-.391.259,1.222,1.222,0,0,1-.406.352c-.059.027-.147,0-.259-.078a.572.572,0,0,0-.222-.117.088.088,0,0,0-.064.027,1.505,1.505,0,0,0-.457,1.222,1.659,1.659,0,0,0,.261.951c.244.357.447.535.611.535a1.45,1.45,0,0,0,1.109-.716,1.811,1.811,0,0,0,.442-1.275Z" transform="translate(-296.303 -201.33)" fill="#fff"/>
    <path id="Tracé_89" data-name="Tracé 89" d="M419.319,258.675q-.183,1.745-.352,3.5a34.332,34.332,0,0,0-.222,3.479c0,.305,0,.6.027.9a.452.452,0,0,1-.149.366.53.53,0,0,1-.371.156c-.271,0-.489-.183-.679-.547a46.578,46.578,0,0,1-2.072-5.109c-.017-.051-.039-.078-.064-.078q-.09,0-.117.183a32.92,32.92,0,0,0-.222,3.909q0,.99.051,2.021a.533.533,0,0,1-.22.52.279.279,0,0,1-.2.093.513.513,0,0,1-.244-.081l-.244-.115c-.112-.037-.181-.139-.208-.315,0-.139-.017-.281-.027-.43-.024-.489-.039-.994-.039-1.522q0-1.383.156-3.455.244-3.152.274-3.492c0-.191.171-.288.489-.288.147-.017.364.093.65.327a19.87,19.87,0,0,1,1.031,2.58,17.836,17.836,0,0,0,1.073,2.6q.193-1.735.613-5.239c.024-.173.151-.261.376-.261a1.222,1.222,0,0,1,.274.039c.139.034.222.059.244.066A.274.274,0,0,1,419.319,258.675Z" transform="translate(-312.812 -195.241)" fill="#fff"/>
    <path id="Tracé_90" data-name="Tracé 90" d="M456.044,262.645a14.015,14.015,0,0,1-1.42.457,13.407,13.407,0,0,0-1.42.457,6.884,6.884,0,0,0-.171,1.51,1.4,1.4,0,0,0,.489.078,4.417,4.417,0,0,0,.613-.066,4.639,4.639,0,0,1,.611-.064,1.182,1.182,0,0,1,.625.156.909.909,0,0,1,.183.337.161.161,0,0,1-.093.144,1.675,1.675,0,0,0-.181.183.3.3,0,0,1-.261.1,5.372,5.372,0,0,1-1,.078,2.945,2.945,0,0,0-.977.156,6.613,6.613,0,0,0-.244,1.525,1.412,1.412,0,0,0,.105.6,3.584,3.584,0,0,0,2.123.364.354.354,0,0,0,.222-.1.33.33,0,0,1,.2-.1c.244-.051.4.13.489.547a.513.513,0,0,1-.071.384.391.391,0,0,1-.32.191,9.735,9.735,0,0,1-2.737-.244,1.4,1.4,0,0,1-.665-.4,1.166,1.166,0,0,1-.34-.7,8.812,8.812,0,0,1,0-2.033c-.244-.166-.352-.325-.325-.489,0-.078.076-.151.2-.215s.2-.134.215-.2.051-.489.1-1.239c-.489-.1-.733-.276-.716-.547a.7.7,0,0,1,.457-.6l.819-.335a6.262,6.262,0,0,1,1.222-.442c.425-.112.853-.222,1.278-.325a.713.713,0,0,1,.156-.015,1.71,1.71,0,0,1,.821.274,1.49,1.49,0,0,0,.066.2.718.718,0,0,1,.051.21A.2.2,0,0,1,456.044,262.645Z" transform="translate(-341.003 -197.831)" fill="#fff"/>
    <path id="Tracé_91" data-name="Tracé 91" d="M475.06,257.348a.665.665,0,0,1-.445.547q-.845.208-2.944.547-.259,3.242-.261,5.407,0,.821.027,1.618a1.177,1.177,0,0,1-.027.376.244.244,0,0,1-.261.2.811.811,0,0,1-.625-.318,1.19,1.19,0,0,1-.271-.684c-.02-.323-.027-.662-.027-1.016q0-.86.117-2.724.117-1.786.105-2.724a4.8,4.8,0,0,0-.977.066,8.464,8.464,0,0,1-.99.105,1.564,1.564,0,0,1-1.043-.342c-.1-.227-.156-.347-.156-.354a.318.318,0,0,1,.093-.2,8.926,8.926,0,0,1,1.71-.261,4.755,4.755,0,0,0,1.7-.423,3.177,3.177,0,0,0,1.041.156,4.327,4.327,0,0,0,1.122-.142,7.171,7.171,0,0,0,.794-.183,2.2,2.2,0,0,1,.784-.078c.156,0,.22.066.2.2C474.94,257.113,475.06,257.191,475.06,257.348Z" transform="translate(-353.096 -194.136)" fill="#fff"/>
    <path id="Tracé_92" data-name="Tracé 92" d="M509.4,266.329c-.017,0-.528.371-1.525,1.087a8.9,8.9,0,0,1-1.552.931.369.369,0,0,1-.156.039.435.435,0,0,1-.34-.244c-.156-.21-.244-.318-.244-.327a32.015,32.015,0,0,1,.144-3.2c.129-1.451.2-2.5.2-3.145,0-.445-.02-.86-.054-1.253a.586.586,0,0,1,.43-.169c.33,0,.52.122.574.364q.039,1.068-.09,3.2t-.105,3.2a6.671,6.671,0,0,0,.95-.547,8.754,8.754,0,0,1,.926-.586,1.756,1.756,0,0,0,.227-.027,1.813,1.813,0,0,1,.244-.027.4.4,0,0,1,.379.21A.415.415,0,0,1,509.4,266.329Z" transform="translate(-382.036 -196.508)" fill="#fff"/>
    <path id="Tracé_93" data-name="Tracé 93" d="M525.7,256.646a2.016,2.016,0,0,1,.064.489,3.341,3.341,0,0,1-.274,1.161c-.259.669-.408,1.073-.442,1.222q-.31,1.146-.887,1.146a.57.57,0,0,1-.208-.039c-.183-.061-.244-.213-.2-.454s.23-.819.535-1.71a8.619,8.619,0,0,0,.4-1.8c.017-.193.191-.269.52-.244a1.779,1.779,0,0,1,.3.051A.276.276,0,0,1,525.7,256.646Z" transform="translate(-395.763 -193.759)" fill="#fff"/>
    <path id="Tracé_94" data-name="Tracé 94" d="M539.328,267.154a1.075,1.075,0,0,1,.078.364.589.589,0,0,1-.222.457c-.147.13-.244.191-.3.181-.425-.076-.694-.42-.806-1.029a10.191,10.191,0,0,0-.43-1.654l-.887.078a1.466,1.466,0,0,0-.794.313,14.139,14.139,0,0,0-.376,1.444,9.588,9.588,0,0,1-.43,1.447c-.071.156-.217.2-.442.132-.288-.1-.44-.227-.457-.391a3.176,3.176,0,0,1,.286-1.329,5.594,5.594,0,0,0,.43-1.356.351.351,0,0,0-.169-.261q-.183-.143-.183-.22a.215.215,0,0,1,.059-.137.489.489,0,0,1,.274-.117c.144-.032.225-.076.244-.137q.244-.652.733-2.424a21.73,21.73,0,0,1,.77-2.36.318.318,0,0,1,.325-.181.489.489,0,0,1,.325.117,1.5,1.5,0,0,1,.469.938c.054.354.1.711.144,1.068A41.521,41.521,0,0,0,539.328,267.154Zm-1.9-2.49a8.322,8.322,0,0,0-.169-1.082q-.132-.52-.244-1.041c-.259.721-.489,1.442-.677,2.162a8.419,8.419,0,0,1,1.092-.039Z" transform="translate(-403.71 -196.449)" fill="#fff"/>
    <path id="Tracé_95" data-name="Tracé 95" d="M561.4,262.014a15.124,15.124,0,0,1-.521,2.443c-.391,1.366-.618,2.2-.679,2.478a6.108,6.108,0,0,1-1.095,2.4,1.418,1.418,0,0,1-1.173.679q-.586-.015-.872-.745a7.656,7.656,0,0,1-.489-2.878,21.005,21.005,0,0,1,.183-2.443,5.944,5.944,0,0,1,0-.806q0-.81.625-.809a.635.635,0,0,1,.279.071c.1.046.2.1.293.149,0,.445,0,1.095-.039,1.955q-.061,1.381-.064,1.994,0,.652.037,1.188a8.522,8.522,0,0,0,.244,1.041,4.313,4.313,0,0,0,.862-1.627c.068-.227.208-.843.415-1.852a8.381,8.381,0,0,1,.562-1.8,2.475,2.475,0,0,0,.154-.689,2.645,2.645,0,0,1,.159-.7.489.489,0,0,1,.489-.313A.733.733,0,0,1,561.4,262.014Z" transform="translate(-420.57 -197.786)" fill="#fff"/>
    <path id="Tracé_96" data-name="Tracé 96" d="M580.978,257.348a.665.665,0,0,1-.445.547q-.848.208-2.944.547-.259,3.242-.261,5.407,0,.821.027,1.618a1.175,1.175,0,0,1-.027.376.244.244,0,0,1-.261.2.811.811,0,0,1-.626-.318,1.19,1.19,0,0,1-.271-.684c-.02-.323-.027-.662-.027-1.016q0-.86.117-2.724.117-1.786.105-2.724a4.8,4.8,0,0,0-.977.066,8.462,8.462,0,0,1-.977.105,1.564,1.564,0,0,1-1.043-.342c-.1-.227-.156-.347-.156-.354a.318.318,0,0,1,.093-.2,8.925,8.925,0,0,1,1.71-.261,4.755,4.755,0,0,0,1.7-.423,3.177,3.177,0,0,0,1.043.156,4.324,4.324,0,0,0,1.119-.142,7.161,7.161,0,0,0,.794-.183,2.2,2.2,0,0,1,.784-.078c.156,0,.22.066.2.2C580.868,257.113,580.978,257.191,580.978,257.348Z" transform="translate(-433.143 -194.136)" fill="#fff"/>
    <path id="Tracé_97" data-name="Tracé 97" d="M602.245,269.846a3.222,3.222,0,0,1-2.175,2.057,1.484,1.484,0,0,1-.34.042,2.133,2.133,0,0,1-1.5-.809,2,2,0,0,1-.508-1.42,4.53,4.53,0,0,1,.574-2.074,3.093,3.093,0,0,1,.6-.806,1.141,1.141,0,0,1,.767-.406.594.594,0,0,1,.391.156,3.611,3.611,0,0,0,.977.418,1.466,1.466,0,0,1,.887.7,3.355,3.355,0,0,1,.457,1.5A1.513,1.513,0,0,1,602.245,269.846Zm-1.034-.809c-.061-.633-.244-1.012-.508-1.134a.325.325,0,0,0-.117-.024.6.6,0,0,0-.391.259,1.222,1.222,0,0,1-.406.352c-.061.027-.147,0-.259-.078a.589.589,0,0,0-.222-.117.1.1,0,0,0-.066.027,1.51,1.51,0,0,0-.454,1.222,1.676,1.676,0,0,0,.259.951c.244.357.45.535.613.535a1.45,1.45,0,0,0,1.109-.716A1.811,1.811,0,0,0,601.211,269.037Z" transform="translate(-451.666 -201.33)" fill="#fff"/>
    <path id="Tracé_98" data-name="Tracé 98" d="M624.911,258.675q-.183,1.745-.352,3.5a34.242,34.242,0,0,0-.22,3.479c0,.305,0,.6.024.9a.452.452,0,0,1-.149.366.53.53,0,0,1-.371.156c-.269,0-.489-.183-.677-.547a45.585,45.585,0,0,1-2.072-5.109c-.02-.051-.042-.078-.066-.078q-.09,0-.117.183a32.907,32.907,0,0,0-.222,3.909q0,.99.054,2.021a.538.538,0,0,1-.222.52.279.279,0,0,1-.2.093.513.513,0,0,1-.244-.081c-.132-.059-.213-.1-.244-.115-.115-.037-.183-.139-.21-.315,0-.139-.017-.281-.027-.43-.024-.489-.039-.994-.039-1.522q0-1.383.159-3.455.244-3.152.271-3.492c0-.191.171-.288.489-.288.147-.017.364.093.652.327a20.323,20.323,0,0,1,1.029,2.58,17.845,17.845,0,0,0,1.068,2.592q.2-1.735.613-5.239c.024-.173.151-.261.376-.261a1.249,1.249,0,0,1,.276.039c.139.034.22.059.244.066A.269.269,0,0,1,624.911,258.675Z" transform="translate(-468.168 -195.241)" fill="#fff"/>
    <path id="Tracé_99" data-name="Tracé 99" d="M648.595,269.846a3.234,3.234,0,0,1-2.177,2.057,1.446,1.446,0,0,1-.337.042,2.142,2.142,0,0,1-1.5-.809,2.011,2.011,0,0,1-.506-1.42,4.553,4.553,0,0,1,.572-2.074,3.1,3.1,0,0,1,.6-.806,1.141,1.141,0,0,1,.767-.406.6.6,0,0,1,.391.156,3.575,3.575,0,0,0,.977.418,1.466,1.466,0,0,1,.887.7,3.387,3.387,0,0,1,.457,1.5A1.514,1.514,0,0,1,648.595,269.846Zm-1.043-.809q-.09-.951-.508-1.134a.313.313,0,0,0-.115-.024.6.6,0,0,0-.391.259,1.264,1.264,0,0,1-.406.352c-.061.027-.149,0-.259-.078a.606.606,0,0,0-.222-.117.091.091,0,0,0-.066.027,1.512,1.512,0,0,0-.457,1.222,1.676,1.676,0,0,0,.261.951c.244.357.447.535.613.535a1.454,1.454,0,0,0,1.107-.716A1.8,1.8,0,0,0,647.552,269.037Z" transform="translate(-486.691 -201.33)" fill="#fff"/>
    <path id="Tracé_100" data-name="Tracé 100" d="M670.369,268.906c.034.176-.093.271-.379.288a.863.863,0,0,1-.586-.244,1.508,1.508,0,0,1-.391-.718,5.492,5.492,0,0,1-.156-1.29,9.654,9.654,0,0,0-.093-1.29q-.169.586-.56,1.747a7.37,7.37,0,0,1-.286.733c-.139.271-.313.391-.523.367a1.466,1.466,0,0,1-.963-.7,4.311,4.311,0,0,1-.418-1.161,7.035,7.035,0,0,0-.352-1.173,18.9,18.9,0,0,1-1.2,4.066c-.061.129-.244.122-.55-.027a.564.564,0,0,1-.376-.52,4.444,4.444,0,0,1,.274-.833q.117-.315.911-3.01a24.547,24.547,0,0,0,.574-3.3,1.71,1.71,0,0,0,.13-.274.244.244,0,0,1,.244-.181.865.865,0,0,1,.613.169,9.785,9.785,0,0,0,.122,1.222,9.425,9.425,0,0,1,.125,1.271q.117.733.222,1.466a3.3,3.3,0,0,0,.521,1.368,33.877,33.877,0,0,0,1.591-5.5c.034-.139.164-.21.391-.21.32,0,.5.105.547.315a5.655,5.655,0,0,1,.09,1.08c0,.132,0,.418-.027.86v.872a29.1,29.1,0,0,0,.5,4.608Z" transform="translate(-501.401 -197.355)" fill="#fff"/>
    <path id="Tracé_101" data-name="Tracé 101" d="M695.81,263.447c.015.244.024.513.024.782q0,.887-.181,2.671c-.122,1.19-.183,2.092-.183,2.688,0,.227,0,.45.012.665a.464.464,0,0,1-.508.352c-.374-.017-.577-.176-.611-.489a8.108,8.108,0,0,1-.054-.965,24.273,24.273,0,0,1,.215-2.644,23.617,23.617,0,0,0,.215-2.634,5.382,5.382,0,0,0-.027-.662.462.462,0,0,1,.445-.244.994.994,0,0,1,.489.144.154.154,0,0,1,.076-.039c.027,0,.042.044.042.129a.505.505,0,0,0,0,.183A.078.078,0,0,0,695.81,263.447Z" transform="translate(-524.653 -198.711)" fill="#fff"/>
    <path id="Tracé_102" data-name="Tracé 102" d="M707.255,262.645a14.007,14.007,0,0,1-1.42.457,13.42,13.42,0,0,0-1.42.457,6.584,6.584,0,0,0-.171,1.51,1.4,1.4,0,0,0,.489.078,4.409,4.409,0,0,0,.611-.066,4.716,4.716,0,0,1,.613-.064,1.183,1.183,0,0,1,.626.156.91.91,0,0,1,.183.34.161.161,0,0,1-.093.144,1.689,1.689,0,0,0-.181.183.3.3,0,0,1-.261.1,5.372,5.372,0,0,1-1,.078,2.945,2.945,0,0,0-.977.156A6.613,6.613,0,0,0,704,267.7a1.413,1.413,0,0,0,.105.6,3.584,3.584,0,0,0,2.123.364.359.359,0,0,0,.222-.1.33.33,0,0,1,.2-.1c.244-.051.4.129.489.547a.513.513,0,0,1-.071.384.393.393,0,0,1-.32.191,9.727,9.727,0,0,1-2.737-.244,1.386,1.386,0,0,1-.665-.4,1.165,1.165,0,0,1-.34-.7,8.812,8.812,0,0,1,0-2.033c-.244-.166-.352-.325-.325-.489,0-.078.076-.151.2-.215a.379.379,0,0,0,.215-.2c.02-.068.051-.489.1-1.239-.489-.1-.733-.276-.716-.547a.7.7,0,0,1,.454-.6l.819-.337a6.2,6.2,0,0,1,1.222-.442c.425-.112.85-.222,1.278-.325a.71.71,0,0,1,.156-.015,1.71,1.71,0,0,1,.821.274,1.785,1.785,0,0,0,.064.2.665.665,0,0,1,.054.21A.2.2,0,0,1,707.255,262.645Z" transform="translate(-530.832 -197.831)" fill="#fff"/>
  </g>
</svg>
