<svg xmlns="http://www.w3.org/2000/svg" xmlns:xlink="http://www.w3.org/1999/xlink" width="114" height="114" viewBox="0 0 114 114">
  <defs>
    <filter id="Ellipse_1" x="0" y="0" width="114" height="114" filterUnits="userSpaceOnUse">
      <feOffset dy="3" input="SourceAlpha"/>
      <feGaussianBlur stdDeviation="3" result="blur"/>
      <feFlood flood-opacity="0.161"/>
      <feComposite operator="in" in2="blur"/>
      <feComposite in="SourceGraphic"/>
    </filter>
  </defs>
  <g id="picto-solidaire" transform="translate(-1514 -412)">
    <g transform="matrix(1, 0, 0, 1, 1514, 412)" filter="url(#Ellipse_1)">
      <circle id="Ellipse_1-2" data-name="Ellipse 1" cx="48" cy="48" r="48" transform="translate(9 6)" fill="#9640cc"/>
    </g>
    <g id="Groupe_24" data-name="Groupe 24" transform="translate(1401.849 280.643)">
      <g id="Groupe_12" data-name="Groupe 12" transform="translate(145.271 156.773)">
        <path id="Tracé_105" data-name="Tracé 105" d="M216.361,213.871a7.219,7.219,0,0,1-10.211,0L181.782,189.5l22.908-22.908a20.841,20.841,0,0,1,29.558,29.389Z" transform="translate(-180.252 -159.391)" fill="#fff"/>
        <path id="Tracé_106" data-name="Tracé 106" d="M207.583,214.471a8.246,8.246,0,0,1-5.87-2.432L176.58,186.906l23.673-23.673a21.923,21.923,0,1,1,31.088,30.919l-17.888,17.888A8.247,8.247,0,0,1,207.583,214.471Zm-27.944-27.565,23.6,23.6a6.138,6.138,0,0,0,8.68,0l17.888-17.888a19.759,19.759,0,0,0-28.028-27.859Z" transform="translate(-176.58 -156.794)" fill="#9640cc"/>
      </g>
      <g id="Groupe_17" data-name="Groupe 17" transform="translate(132.23 156.764)">
        <g id="Groupe_13" data-name="Groupe 13" transform="translate(0 0)">
          <path id="Tracé_107" data-name="Tracé 107" d="M194.965,190.075l-7.033,7.033a31.737,31.737,0,0,1-44.882,0l-1.02-1.02a20.841,20.841,0,0,1,29.389-29.558" transform="translate(-134.827 -159.361)" fill="#fff"/>
          <path id="Tracé_108" data-name="Tracé 108" d="M162.895,204.872a32.717,32.717,0,0,1-23.206-9.6l-1.02-1.02a21.923,21.923,0,1,1,30.919-31.087,1.082,1.082,0,0,1-1.53,1.53A19.759,19.759,0,0,0,140.2,192.725l1.02,1.02a30.689,30.689,0,0,0,43.352,0l7.033-7.033a1.082,1.082,0,0,1,1.53,1.53l-7.033,7.033A32.716,32.716,0,0,1,162.895,204.872Z" transform="translate(-132.23 -156.764)" fill="#9640cc"/>
        </g>
        <g id="Groupe_14" data-name="Groupe 14" transform="translate(22.145 36.928)">
          <path id="Tracé_109" data-name="Tracé 109" d="M211.222,286.034l19.438,19.438a5.181,5.181,0,0,0,7.327,0l.042-.042a5.181,5.181,0,0,0,0-7.327l-12.073-12.073" transform="translate(-210.14 -284.95)" fill="#fff"/>
          <path id="Tracé_110" data-name="Tracé 110" d="M231.726,305.472a6.243,6.243,0,0,1-4.428-1.831L207.86,284.2a1.082,1.082,0,1,1,1.53-1.53l19.438,19.438a4.1,4.1,0,0,0,5.8,0l.041-.042a4.1,4.1,0,0,0,0-5.8L222.593,284.2a1.082,1.082,0,0,1,1.53-1.53L236.2,294.742a6.262,6.262,0,0,1,0,8.856l-.042.042A6.247,6.247,0,0,1,231.726,305.472Z" transform="translate(-207.543 -282.353)" fill="#9640cc"/>
        </g>
        <g id="Groupe_15" data-name="Groupe 15" transform="translate(36.878 24.773)">
          <path id="Tracé_111" data-name="Tracé 111" d="M261.329,256.847l12.441,12.441a5.18,5.18,0,0,0,7.326,0l.042-.042a5.18,5.18,0,0,0,0-7.326L263.91,244.692" transform="translate(-260.247 -243.611)" fill="#fff"/>
          <path id="Tracé_112" data-name="Tracé 112" d="M274.837,269.288a6.243,6.243,0,0,1-4.429-1.832l-12.441-12.441a1.082,1.082,0,1,1,1.53-1.53l12.441,12.441a4.071,4.071,0,0,0,2.9,1.2h0a4.071,4.071,0,0,0,2.9-1.2l.045-.045a4.1,4.1,0,0,0,0-5.794L260.548,242.86a1.082,1.082,0,0,1,1.53-1.53l17.228,17.228a6.27,6.27,0,0,1,0,8.856l-.045.045A6.237,6.237,0,0,1,274.837,269.288Z" transform="translate(-257.65 -241.014)" fill="#9640cc"/>
        </g>
        <g id="Groupe_16" data-name="Groupe 16" transform="translate(39.459 13.92)">
          <path id="Tracé_113" data-name="Tracé 113" d="M270.106,218.636,286.6,235.128a5.182,5.182,0,0,0,7.327,0l.042-.042a5.181,5.181,0,0,0,0-7.326l-19.976-19.976" transform="translate(-269.024 -206.702)" fill="#fff"/>
          <path id="Tracé_114" data-name="Tracé 114" d="M287.662,235.126a6.239,6.239,0,0,1-4.426-1.83L266.744,216.8a1.082,1.082,0,0,1,1.53-1.53l16.492,16.492a4.1,4.1,0,0,0,5.8,0l.036-.037a4.106,4.106,0,0,0,.005-5.8l-19.976-19.976a1.082,1.082,0,1,1,1.53-1.53L292.135,224.4a6.27,6.27,0,0,1,0,8.856l-.037.037A6.255,6.255,0,0,1,287.662,235.126Z" transform="translate(-266.427 -204.105)" fill="#9640cc"/>
        </g>
      </g>
      <g id="Groupe_18" data-name="Groupe 18" transform="translate(156.34 162.334)">
        <path id="Tracé_115" data-name="Tracé 115" d="M230.751,179.385,219.437,190.7a5.24,5.24,0,0,0,0,7.411,5.181,5.181,0,0,0,7.326,0l10.374-10.375" transform="translate(-216.821 -178.304)" fill="#fff"/>
        <path id="Tracé_116" data-name="Tracé 116" d="M220.5,198.109a6.308,6.308,0,0,1-4.428-10.772l11.313-11.314a1.082,1.082,0,0,1,1.53,1.53l-11.313,11.314a4.129,4.129,0,0,0,5.8,5.881l10.374-10.374a1.082,1.082,0,0,1,1.53,1.53l-10.374,10.375A6.245,6.245,0,0,1,220.5,198.109Z" transform="translate(-214.224 -175.707)" fill="#9640cc"/>
      </g>
      <g id="Groupe_23" data-name="Groupe 23" transform="translate(139.459 185.809)">
        <g id="Groupe_19" data-name="Groupe 19" transform="translate(0 0)">
          <path id="Tracé_117" data-name="Tracé 117" d="M172.567,260.739a5.179,5.179,0,0,0-7.326,0l-3.212,3.212a5.24,5.24,0,0,0,0,7.411,5.181,5.181,0,0,0,7.326,0l3.254-3.255a5.18,5.18,0,0,0,0-7.326Z" transform="translate(-159.412 -258.139)" fill="#fff"/>
          <path id="Tracé_118" data-name="Tracé 118" d="M163.095,271.363h0a6.309,6.309,0,0,1-4.428-10.775l3.212-3.212a6.261,6.261,0,0,1,8.856,0l.04.039a6.27,6.27,0,0,1,0,8.859l-3.254,3.254A6.22,6.22,0,0,1,163.095,271.363Zm3.212-13.658a4.075,4.075,0,0,0-2.9,1.2l-3.212,3.212a4.158,4.158,0,0,0,0,5.881,4.1,4.1,0,0,0,5.8,0l3.254-3.254a4.1,4.1,0,0,0,0-5.8l-.04-.039A4.073,4.073,0,0,0,166.307,257.705Z" transform="translate(-156.815 -255.542)" fill="#9640cc"/>
        </g>
        <g id="Groupe_20" data-name="Groupe 20" transform="translate(7.38 6.275)">
          <path id="Tracé_119" data-name="Tracé 119" d="M198.768,282.077a5.18,5.18,0,0,0-7.326,0l-4.316,4.317a5.24,5.24,0,0,0,0,7.411,5.181,5.181,0,0,0,7.327,0l4.359-4.359a5.181,5.181,0,0,0,0-7.326Z" transform="translate(-184.509 -279.479)" fill="#fff"/>
          <path id="Tracé_120" data-name="Tracé 120" d="M188.191,293.807a6.309,6.309,0,0,1-4.427-10.774l4.316-4.317a6.263,6.263,0,0,1,8.856,0l.04.04a6.27,6.27,0,0,1,0,8.859l-4.359,4.359A6.222,6.222,0,0,1,188.191,293.807Zm4.317-14.762a4.072,4.072,0,0,0-2.9,1.2l-4.316,4.317a4.158,4.158,0,0,0,0,5.881,4.1,4.1,0,0,0,5.8,0l4.359-4.359a4.1,4.1,0,0,0,0-5.8l-.04-.039A4.074,4.074,0,0,0,192.508,279.045Z" transform="translate(-181.912 -276.882)" fill="#9640cc"/>
        </g>
        <g id="Groupe_21" data-name="Groupe 21" transform="translate(14.748 13.643)">
          <path id="Tracé_121" data-name="Tracé 121" d="M223.829,307.137a5.18,5.18,0,0,0-7.326,0l-4.316,4.317a5.241,5.241,0,0,0,0,7.411,5.181,5.181,0,0,0,7.326,0l4.359-4.359a5.181,5.181,0,0,0,0-7.326Z" transform="translate(-209.57 -304.537)" fill="#fff"/>
          <path id="Tracé_122" data-name="Tracé 122" d="M213.252,318.866h0a6.309,6.309,0,0,1-4.427-10.774l4.316-4.316a6.261,6.261,0,0,1,8.856,0l.042.042a6.269,6.269,0,0,1,0,8.856l-4.359,4.36A6.223,6.223,0,0,1,213.252,318.866Zm4.317-14.762a4.076,4.076,0,0,0-2.9,1.2l-4.316,4.317a4.159,4.159,0,0,0,0,5.881,4.072,4.072,0,0,0,2.9,1.2h0a4.073,4.073,0,0,0,2.9-1.2l4.359-4.36a4.1,4.1,0,0,0,0-5.8l-.042-.042A4.127,4.127,0,0,0,217.569,304.1Z" transform="translate(-206.973 -301.94)" fill="#9640cc"/>
        </g>
        <g id="Groupe_22" data-name="Groupe 22" transform="translate(22.116 22.485)">
          <path id="Tracé_123" data-name="Tracé 123" d="M247.413,337.206a5.181,5.181,0,0,0-7.326,0l-2.844,2.844a5.24,5.24,0,0,0,0,7.411,5.18,5.18,0,0,0,7.326,0l2.886-2.886a5.181,5.181,0,0,0,0-7.326Z" transform="translate(-234.627 -334.607)" fill="#fff"/>
          <path id="Tracé_124" data-name="Tracé 124" d="M238.31,347.462a6.292,6.292,0,0,1-6.28-6.3,6.281,6.281,0,0,1,1.852-4.471l2.844-2.844a6.263,6.263,0,0,1,8.856,0l.04.04a6.271,6.271,0,0,1,0,8.859l-2.887,2.886A6.22,6.22,0,0,1,238.31,347.462Zm2.844-13.289a4.071,4.071,0,0,0-2.9,1.2l-2.844,2.844a4.158,4.158,0,0,0,0,5.881,4.1,4.1,0,0,0,5.8,0l2.886-2.886a4.1,4.1,0,0,0,0-5.8l-.04-.04A4.073,4.073,0,0,0,241.153,334.173Z" transform="translate(-232.03 -332.01)" fill="#9640cc"/>
        </g>
      </g>
    </g>
  </g>
</svg>
