<svg xmlns="http://www.w3.org/2000/svg" xmlns:xlink="http://www.w3.org/1999/xlink" width="114" height="114" viewBox="0 0 114 114">
  <defs>
    <filter id="Ellipse_1" x="0" y="0" width="114" height="114" filterUnits="userSpaceOnUse">
      <feOffset dy="3" input="SourceAlpha"/>
      <feGaussianBlur stdDeviation="3" result="blur"/>
      <feFlood flood-opacity="0.161"/>
      <feComposite operator="in" in2="blur"/>
      <feComposite in="SourceGraphic"/>
    </filter>
  </defs>
  <g id="Groupe_27" data-name="Groupe 27" transform="translate(-17 -449)">
    <g transform="matrix(1, 0, 0, 1, 17, 449)" filter="url(#Ellipse_1)">
      <circle id="Ellipse_1-2" data-name="Ellipse 1" cx="48" cy="48" r="48" transform="translate(9 6)" fill="#49c836"/>
    </g>
    <path id="Tracé_133" data-name="Tracé 133" d="M92.8,8.563c-.026,4.714-4.568,8.51-4.568,8.51s-4.5-3.849-4.471-8.563S88.327,0,88.327,0,92.824,3.848,92.8,8.563Zm17.047,3.912s-5.41.293-8.014,3.734-1.416,8.727-1.416,8.727,5.41-.292,8.014-3.734S109.843,12.475,109.843,12.475ZM74.179,7.708s-2.273,4.919-.449,8.83,7.05,5.335,7.05,5.335,2.273-4.918.45-8.83S74.179,7.708,74.179,7.708ZM76.23,26.091s-.611,3.857,1.422,6.21,5.936,2.313,5.936,2.313.61-3.856-1.42-6.21S76.23,26.091,76.23,26.091ZM66.152,19.205s-.172,3.182,1.676,4.922,5.014,1.379,5.014,1.379.169-3.182-1.677-4.921S66.152,19.205,66.152,19.205ZM110.583,25.9a4.91,4.91,0,0,0,3.6-.385,4.937,4.937,0,0,0,1.7-3.2,4.919,4.919,0,0,0-3.6.387A4.926,4.926,0,0,0,110.583,25.9ZM76.473,48.533a4.2,4.2,0,0,0,3.088.183,4.213,4.213,0,0,0,1.886-2.455,4.2,4.2,0,0,0-3.088-.183A4.214,4.214,0,0,0,76.473,48.533ZM101,6.249s-2.576.7-3.472,2.626.224,4.349.224,4.349,2.573-.7,3.47-2.628S101,6.249,101,6.249ZM95.8,16.5s-3.338,1.541-4.114,4.365,1.3,5.858,1.3,5.858,3.338-1.541,4.113-4.365S95.8,16.5,95.8,16.5Zm10.189,12.359s-2.642-.536-4.325.8-1.77,4.024-1.77,4.024,2.641.535,4.326-.8S105.991,28.856,105.991,28.856ZM65.115,41.381s2.545,3.135,5.759,3.2,5.882-2.968,5.882-2.968-2.544-3.134-5.758-3.2S65.115,41.381,65.115,41.381Zm42.2,6.43c3.057.576,6.086-1.887,6.086-1.887s-1.926-3.4-4.981-3.974-6.085,1.887-6.085,1.887S104.257,47.234,107.312,47.811Zm13.1-16.03s-4.32-2.669-8.164-1.415-5.756,5.956-5.756,5.956,4.32,2.67,8.163,1.415S120.409,31.78,120.409,31.78ZM65.17,35.094c3.944,1.751,8.822-.611,8.822-.611s-1.519-5.2-5.463-6.952-8.822.611-8.822.611S61.225,33.342,65.17,35.094ZM96.753,47.728a35.353,35.353,0,0,1,7.741-10.3,37.847,37.847,0,0,0-8.831,6.237c-.248.243-.423.226-.5-.044-.18-.617-.372-1.226-.572-1.827a5.885,5.885,0,0,1-.278-1.841,30.242,30.242,0,0,1,4.043-11.2,33.315,33.315,0,0,0-5.632,7c-.138.237-.3.424-.468.024-2.112-4.927-4.321-9.4-4.963-13.741-.6,4.922,2.259,13.164,2.457,22.9.014.773-.23.518-.564.183a36.678,36.678,0,0,0-12.258-7.672c4.8,3.689,9.855,9.035,11.785,15.872a4.988,4.988,0,0,1-.012,2.4,52.012,52.012,0,0,1-3.971,10.709h9.866C97.541,60.405,96.9,54.374,96.5,50.37A4.017,4.017,0,0,1,96.753,47.728Z" transform="translate(-15.707 469.866)" fill="#fff"/>
  </g>
</svg>
